<?xml version="1.0" standalone="no"?>
<!DOCTYPE svg PUBLIC "-//W3C//DTD SVG 20010904//EN"
 "http://www.w3.org/TR/2001/REC-SVG-20010904/DTD/svg10.dtd">
<svg version="1.0" xmlns="http://www.w3.org/2000/svg"
 width="833.000000pt" height="617.000000pt" viewBox="0 0 833.000000 617.000000"
 preserveAspectRatio="xMidYMid meet">

<g transform="translate(0.000000,617.000000) scale(0.100000,-0.100000)"
fill="#000000" stroke="none">
<path d="M5157 5893 c-73 -6 -115 -56 -59 -69 79 -20 191 -118 238 -209 31
-60 44 -82 66 -115 18 -28 26 -63 16 -68 -41 -18 -69 -19 -100 -2 -18 9 -36
18 -40 19 -34 8 -78 35 -103 63 -42 45 -75 95 -75 110 0 23 -80 51 -140 51
-88 -2 -200 -15 -200 -23 0 -5 -9 -6 -20 -3 -15 4 -20 0 -20 -16 0 -17 -5 -20
-22 -16 -26 6 -38 -1 -56 -33 -11 -20 -11 -27 2 -41 9 -10 16 -23 16 -30 0 -8
8 -11 20 -8 15 4 20 0 21 -16 1 -12 2 -29 3 -37 0 -9 27 -24 65 -37 112 -41
218 -138 240 -223 27 -104 19 -132 -26 -91 -13 12 -29 17 -45 14 -20 -4 -27 0
-32 19 -13 51 -119 138 -168 138 -17 0 -31 -7 -37 -19 -6 -10 -23 -22 -38 -26
-16 -4 -22 -10 -15 -12 17 -6 15 -23 -3 -23 -26 0 -23 66 6 119 10 20 19 39
19 43 0 12 -88 10 -95 -2 -3 -5 -24 -14 -46 -20 -24 -7 -59 -30 -89 -58 -54
-52 -59 -62 -32 -62 43 -1 46 -17 8 -50 -41 -37 -46 -61 -13 -83 27 -18 17
-33 -11 -18 -22 12 -85 15 -95 5 -4 -4 -22 -8 -41 -10 -27 -2 -34 0 -29 12 3
8 -1 14 -11 14 -19 0 -19 1 -6 35 8 20 7 30 -4 41 -8 8 -17 14 -19 14 -15 0
-56 -84 -66 -135 -17 -86 -28 -205 -19 -199 4 3 8 15 8 27 0 12 14 37 30 56
35 40 37 45 10 38 -14 -4 -20 0 -20 13 0 21 37 70 53 70 6 0 28 -18 48 -40 25
-27 45 -40 63 -40 39 0 101 -59 92 -88 -4 -12 -15 -22 -25 -22 -30 0 -32 -12
-6 -32 14 -11 25 -30 25 -42 0 -22 33 -46 64 -46 8 0 16 -7 20 -15 3 -8 14
-15 25 -15 29 0 33 -25 5 -28 -13 -1 -24 3 -24 8 0 6 -11 8 -25 4 -15 -4 -25
-2 -25 5 0 6 -8 11 -17 11 -9 0 -24 6 -32 14 -14 12 -18 12 -29 0 -11 -12 -10
-14 3 -14 8 0 15 -4 15 -10 0 -5 11 -10 25 -10 16 0 25 -6 25 -15 0 -8 -7 -15
-15 -15 -8 0 -15 4 -15 9 0 6 -8 10 -17 9 -10 0 -42 5 -72 11 -66 13 -81 14
-58 0 36 -21 8 -58 -45 -60 -22 0 -22 -1 -3 -9 14 -6 15 -9 5 -9 -8 -1 -32 8
-53 19 -20 11 -38 17 -38 13 -7 -43 28 -83 72 -83 43 0 72 -17 61 -36 -5 -9
-4 -32 1 -53 19 -71 -8 -87 -94 -55 -24 9 -53 17 -65 19 -11 2 -30 9 -42 16
-22 14 -26 12 -106 -27 -34 -17 -48 -10 -20 11 10 8 14 15 7 15 -6 0 -18 -6
-25 -13 -7 -7 -27 -18 -44 -24 -29 -10 -31 -9 -27 8 3 11 15 26 26 34 16 11
18 15 6 15 -19 0 -59 -33 -59 -49 0 -6 -7 -11 -15 -11 -8 0 -15 5 -15 10 0 6
-11 10 -24 10 -19 0 -22 -4 -18 -25 2 -15 0 -25 -7 -25 -6 0 -11 -7 -11 -15 0
-8 -7 -15 -15 -15 -9 0 -15 9 -15 21 0 15 -4 19 -16 15 -9 -3 -18 -6 -20 -6
-2 0 -4 -8 -4 -17 -1 -29 -25 -53 -54 -53 -14 0 -35 -9 -46 -20 -21 -21 -27
-50 -10 -50 6 0 10 4 10 10 0 15 41 33 52 22 15 -15 16 -101 1 -113 -7 -6 -13
-17 -13 -24 0 -18 -54 -24 -68 -8 -7 7 -15 26 -18 43 -7 32 -24 32 -24 -1 0
-10 -5 -19 -10 -19 -16 0 -3 51 16 65 16 11 16 14 3 28 -14 13 -20 12 -55 -9
-50 -30 -80 -100 -58 -133 28 -39 14 -203 -22 -258 -18 -28 -18 -43 0 -43 13
0 47 46 76 104 23 45 39 43 46 -3 4 -23 11 -44 16 -47 16 -10 53 5 114 46 72
48 104 53 53 7 -49 -44 -70 -60 -101 -76 -15 -8 -36 -22 -47 -32 -10 -10 -22
-15 -25 -12 -3 4 -16 -2 -27 -13 -16 -14 -23 -16 -26 -6 -4 10 -11 9 -31 -4
-40 -26 -50 -39 -58 -70 -4 -16 -15 -40 -26 -53 -20 -27 -23 -41 -8 -41 6 0
15 10 21 23 6 12 30 33 54 46 26 13 48 34 54 50 15 40 33 56 64 59 18 1 27 -3
27 -13 0 -8 5 -15 10 -15 6 0 10 4 10 8 0 5 7 9 15 9 8 0 44 15 80 33 36 18
69 30 73 26 4 -4 -2 -12 -12 -18 -10 -6 -32 -24 -49 -39 -16 -16 -34 -29 -38
-29 -5 0 -9 -5 -9 -11 0 -6 9 -8 23 -3 12 4 29 7 37 8 8 1 17 4 21 8 3 5 31
21 63 37 46 24 58 27 63 15 3 -8 3 -20 0 -27 -3 -7 1 -21 9 -32 13 -18 14 -17
15 11 2 37 2 35 -7 59 -4 11 -4 17 1 13 4 -4 14 0 21 10 12 15 14 14 15 -13 1
-16 0 -34 -1 -40 -1 -5 -3 -17 -5 -25 -6 -25 -32 -93 -50 -128 -11 -21 -14
-42 -10 -63 l7 -31 -31 17 c-36 18 -41 6 -16 -41 11 -22 12 -30 2 -36 -7 -5
-15 0 -21 12 -11 24 -29 26 -46 5 -8 -10 -11 -31 -6 -61 3 -24 2 -52 -3 -62
-4 -9 -16 -32 -25 -50 -12 -21 -15 -43 -11 -62 10 -47 -17 -37 -41 15 -18 39
-19 45 -5 46 14 0 14 1 1 6 -18 8 -38 27 -67 67 -28 37 -31 14 -6 -42 20 -43
25 -126 6 -111 -12 10 -53 92 -73 147 -17 45 -35 35 -35 -20 0 -31 4 -44 12
-41 7 3 16 -12 23 -36 6 -22 15 -43 20 -46 14 -9 12 -21 -6 -39 -8 -9 -11 -16
-5 -16 5 0 13 -10 17 -22 3 -12 12 -28 19 -35 7 -7 16 -18 18 -25 4 -10 8 -9
16 2 6 9 11 10 11 3 0 -6 -8 -19 -17 -29 -17 -17 -17 -17 4 -12 19 5 21 3 13
-12 -7 -13 -5 -21 5 -30 8 -7 12 -16 9 -21 -3 -5 0 -9 6 -9 7 0 10 -6 7 -13
-3 -7 3 -19 13 -25 10 -6 21 -25 25 -42 4 -16 10 -30 14 -30 4 0 7 -8 8 -17 3
-34 16 -78 24 -84 5 -3 10 -24 11 -48 2 -70 21 -64 61 20 28 60 56 131 64 165
5 20 10 21 98 16 51 -2 109 -2 128 2 34 6 35 8 47 74 12 62 54 141 68 127 3
-3 14 3 24 12 16 14 18 14 13 1 -5 -11 2 -17 25 -22 18 -3 36 -3 41 0 5 3 9
-1 9 -8 0 -7 20 -25 45 -38 42 -23 45 -27 39 -54 -4 -19 -3 -26 5 -22 6 4 27
3 46 -3 33 -9 35 -8 35 14 0 19 4 22 23 18 12 -4 31 -12 42 -20 18 -12 16 -13
-18 -13 l-38 0 23 -30 c14 -20 31 -30 47 -30 l26 0 -29 -15 c-15 -8 -40 -15
-55 -16 -26 -1 -26 -1 4 -10 17 -6 36 -11 44 -13 8 -1 19 -10 26 -19 11 -15
14 -16 25 -2 16 19 41 20 34 1 -3 -8 -24 -24 -47 -35 -37 -17 -39 -20 -17 -21
15 0 31 5 37 11 21 21 36 -1 19 -26 -9 -13 -18 -40 -20 -60 -3 -21 -6 -38 -8
-40 -2 -2 -28 -20 -58 -40 l-55 -37 44 5 c24 3 57 15 72 26 43 32 99 62 99 52
0 -18 -58 -87 -93 -111 -20 -14 -35 -30 -32 -37 2 -7 -14 -31 -35 -55 -52 -55
-51 -75 1 -48 10 6 19 8 19 4 0 -12 -44 -79 -59 -90 -10 -8 -11 -13 -2 -18 16
-10 51 3 51 20 0 8 5 14 10 14 6 0 10 7 10 14 0 14 13 30 74 96 13 14 50 45
82 69 33 25 76 67 97 93 21 27 44 47 50 45 7 -2 23 8 36 22 l24 26 -7 -30 c-4
-17 -14 -37 -22 -46 -8 -8 -14 -22 -14 -30 -1 -30 -90 -150 -121 -162 -9 -3
-6 -6 8 -6 19 -1 21 -5 16 -39 -3 -20 -10 -41 -14 -47 -5 -5 -9 -16 -9 -25 0
-36 -83 -179 -150 -257 -5 -7 -10 -16 -10 -21 0 -5 -7 -15 -15 -22 -8 -7 -15
-20 -15 -30 0 -17 -54 -126 -71 -145 -5 -5 -9 -17 -9 -27 0 -10 -4 -18 -9 -18
-5 0 -7 9 -4 20 4 13 0 20 -9 20 -11 0 -14 -14 -12 -60 0 -33 -2 -60 -7 -60
-9 0 1 -111 11 -125 5 -5 11 -37 15 -70 3 -33 8 -70 10 -81 3 -14 -1 -24 -11
-28 -8 -3 -12 -2 -9 4 3 6 0 10 -7 10 -23 0 -53 86 -66 191 -4 30 -15 67 -25
82 -9 14 -17 45 -17 67 0 22 -7 51 -15 63 -15 24 -11 97 6 97 5 0 9 11 9 25 0
14 6 51 14 83 26 106 37 177 43 277 5 89 3 106 -18 155 -14 34 -26 87 -30 140
-6 79 -6 76 -5 -38 1 -97 4 -125 16 -132 13 -8 13 -10 1 -10 -12 0 -12 -3 -3
-12 14 -14 17 -218 3 -218 -5 0 -11 4 -13 10 -1 5 -4 -34 -5 -87 -2 -104 -16
-141 -27 -73 -5 34 -10 41 -24 35 -14 -5 -15 -4 -4 6 6 7 12 22 12 33 0 16 -3
17 -12 8 -17 -17 -28 -15 -28 4 0 8 -4 13 -9 10 -14 -9 -25 -107 -12 -115 6
-4 7 -18 2 -36 -7 -29 -9 -30 -74 -30 -58 0 -69 -3 -95 -28 -44 -42 -127 -62
-254 -60 -83 1 -120 6 -170 24 -34 12 -76 26 -93 30 -16 4 -55 17 -85 29 -92
36 -86 37 -93 -19 -8 -70 -47 -128 -91 -136 -19 -4 -42 -5 -53 -2 -13 3 -8 8
22 22 67 29 88 58 93 126 2 32 1 59 -2 59 -14 0 -182 -175 -232 -240 -63 -83
-74 -104 -81 -159 -4 -25 -15 -60 -25 -77 -18 -30 -129 -134 -143 -134 -4 0
-24 -13 -44 -29 -20 -16 -56 -39 -81 -52 -25 -13 -47 -26 -50 -29 -9 -12 -90
-28 -90 -18 0 5 -8 2 -17 -8 -12 -11 -18 -13 -21 -5 -3 9 -8 9 -19 -1 -13 -10
-15 -9 -11 7 2 11 10 21 18 21 8 1 18 3 23 4 4 1 10 3 15 5 48 13 115 50 212
116 132 91 200 162 200 210 0 29 40 129 52 129 4 0 8 5 8 11 0 13 58 86 127
159 28 30 83 89 122 130 39 41 71 78 71 82 0 5 9 18 20 30 10 13 36 46 57 75
21 29 66 87 99 130 62 79 104 148 104 170 0 6 6 13 13 16 8 2 12 29 11 89 0
68 -4 90 -18 103 -16 17 -17 15 -10 -45 6 -58 5 -64 -16 -80 -23 -17 -23 -19
-7 -43 15 -24 15 -28 0 -59 -9 -18 -23 -39 -30 -46 -7 -7 -13 -20 -13 -28 0
-8 -4 -14 -9 -14 -5 0 -11 -10 -14 -21 -4 -15 -11 -20 -22 -15 -9 3 -13 2 -10
-4 7 -12 -1 -27 -42 -76 -18 -22 -55 -68 -83 -104 -87 -111 -132 -160 -147
-160 -8 0 -11 5 -8 10 3 6 2 10 -4 10 -5 0 -13 -4 -16 -10 -3 -5 -1 -10 4 -10
20 0 11 -30 -16 -59 -98 -102 -123 -130 -123 -136 0 -4 -16 -26 -35 -49 -19
-24 -35 -48 -35 -53 0 -16 -43 -24 -52 -10 -17 26 -9 39 20 33 15 -4 23 -3 17
1 -5 4 -12 26 -14 48 -3 35 -1 38 13 26 14 -11 16 -11 16 3 0 9 -8 16 -20 16
-11 0 -20 7 -20 15 0 8 9 15 19 15 11 0 23 5 26 10 3 6 18 10 32 10 21 0 23 3
14 14 -7 8 -14 27 -17 43 -3 15 -11 33 -19 39 -16 12 -21 64 -7 64 5 0 19 23
31 50 23 50 23 51 47 35 34 -22 44 -19 44 15 0 17 2 30 4 30 3 0 21 -15 42
-34 23 -21 43 -32 55 -29 14 4 19 0 19 -16 0 -19 3 -20 20 -11 25 13 26 30 3
30 -25 1 -86 100 -72 117 8 9 16 10 30 2 24 -12 24 1 2 29 -10 11 -25 30 -33
42 -8 12 -31 30 -51 42 -25 14 -43 36 -61 76 -15 32 -26 64 -27 72 -1 56 -6
80 -17 84 -8 3 -11 12 -8 21 3 8 1 15 -5 15 -6 0 -11 6 -11 14 0 21 -24 63
-51 89 -13 13 -31 37 -40 54 l-16 30 43 38 c49 41 59 71 22 61 -77 -20 -76
-21 -33 18 22 20 33 35 25 32 -58 -17 -68 -16 -74 9 -4 14 -16 35 -27 46 -16
16 -18 23 -9 34 8 10 8 19 1 34 -14 26 -14 71 0 71 8 0 8 4 1 13 -5 6 -6 21
-2 32 7 19 8 19 15 2 5 -12 14 -16 27 -11 18 5 19 2 12 -43 -4 -26 -11 -59
-16 -72 -5 -15 -5 -28 1 -34 6 -6 14 6 21 34 7 24 15 51 17 59 3 8 7 27 8 41
1 14 14 50 29 78 30 60 33 86 10 95 -12 4 -14 1 -9 -13 7 -24 -35 -121 -52
-121 -7 0 -13 5 -13 11 0 8 -5 8 -15 -1 -12 -10 -15 -9 -16 6 -2 31 2 58 11
69 5 6 18 35 30 65 11 30 27 69 35 85 7 17 16 38 19 48 3 9 16 22 28 27 21 9
20 10 -9 7 -31 -3 -32 -2 -26 27 4 17 19 57 35 88 15 31 28 61 28 67 0 18 32
104 61 164 15 32 33 75 40 95 6 20 22 57 36 80 76 133 102 212 70 212 -13 0
-30 -27 -40 -60 -2 -8 -7 0 -12 19 -5 26 -4 37 7 45 10 7 18 39 23 90 4 43 13
93 21 112 17 41 17 44 1 44 -26 0 -97 -170 -112 -265 -4 -27 -13 -61 -20 -75
-7 -14 -18 -58 -26 -99 -10 -56 -17 -75 -31 -79 -17 -4 -18 -13 -12 -97 l7
-92 -44 3 c-35 2 -48 9 -64 30 -37 51 -73 89 -79 83 -10 -10 43 -102 74 -131
36 -33 36 -34 9 -41 -22 -6 -23 -23 -4 -99 6 -23 4 -28 -11 -28 -23 0 -60 45
-90 108 l-21 47 -7 -35 c-5 -21 -1 -61 7 -100 15 -61 14 -66 -6 -105 -11 -22
-23 -53 -25 -70 -2 -16 -9 -39 -16 -50 -7 -11 -16 -36 -20 -54 -14 -73 -27
-111 -39 -111 -7 1 -25 19 -40 41 -37 54 -53 47 -49 -23 4 -61 -12 -88 -51
-88 -31 0 -79 -58 -66 -81 13 -25 12 -27 -22 -34 -34 -8 -54 5 -54 33 0 23
-27 21 -40 -3 -6 -11 -18 -32 -28 -46 -19 -29 -14 -59 10 -59 13 0 13 -3 3
-15 -7 -8 -21 -15 -31 -15 -27 0 -43 -35 -30 -71 12 -34 2 -37 -44 -13 -62 32
-122 47 -188 47 -107 -2 -124 -34 -37 -72 53 -23 85 -27 75 -10 -4 6 -17 14
-29 19 -38 16 80 11 154 -6 66 -15 90 -28 76 -41 -3 -3 -38 4 -78 16 -40 13
-80 25 -89 28 -12 3 -16 -2 -16 -19 0 -24 14 -34 82 -59 19 -7 19 -7 -2 -8
-30 -1 -34 -51 -4 -51 14 0 17 -6 13 -25 -5 -31 -9 -31 -82 0 -33 14 -67 25
-76 25 -12 0 -15 6 -11 21 13 49 -73 75 -143 44 -48 -22 -63 -48 -22 -39 15 3
32 7 39 9 6 2 13 0 15 -4 2 -4 29 -26 60 -50 74 -56 93 -83 76 -113 -7 -13
-21 -29 -30 -36 -11 -8 -18 -26 -18 -48 0 -19 -2 -34 -4 -34 -10 0 -82 33 -86
40 -3 4 -16 11 -30 15 -20 6 -23 5 -14 -6 6 -8 25 -32 42 -54 36 -47 47 -102
20 -97 -11 2 -18 -3 -18 -12 0 -10 -12 -16 -35 -18 -41 -4 -49 -19 -17 -33 22
-10 31 -45 12 -45 -6 0 -30 9 -52 20 -23 11 -43 18 -46 16 -2 -3 8 -17 22 -33
14 -15 26 -35 26 -43 0 -11 -3 -11 -8 -3 -4 6 -20 17 -36 23 -26 10 -28 9 -23
-10 8 -31 -7 -33 -72 -5 -70 29 -78 30 -57 10 8 -8 21 -15 29 -15 17 0 42 -44
33 -59 -4 -6 -3 -11 3 -11 6 0 17 -14 26 -30 15 -29 15 -30 -5 -30 -11 0 -20
5 -20 10 0 6 -6 10 -13 10 -7 0 -23 9 -34 20 -12 10 -33 22 -48 26 -26 6 -26
6 7 -27 28 -28 30 -34 16 -37 -19 -4 -24 -27 -8 -37 17 -10 11 -35 -7 -35 -10
0 -33 9 -51 20 -18 11 -35 20 -37 20 -12 0 -3 -23 16 -43 37 -40 40 -53 15
-67 -20 -10 -33 -9 -81 9 -32 12 -60 20 -62 17 -3 -2 5 -7 16 -11 12 -3 21
-11 21 -16 0 -5 5 -9 11 -9 15 0 99 -59 99 -70 0 -12 -71 9 -91 26 -20 18 -39
18 -39 0 0 -8 11 -17 25 -20 30 -8 33 -26 5 -33 -11 -3 -20 -9 -20 -13 0 -4
-13 -7 -30 -8 -37 -1 -53 -10 -46 -28 4 -11 0 -11 -20 -2 -18 9 -27 9 -36 0
-9 -9 -8 -12 4 -12 9 0 26 -9 39 -20 23 -19 23 -19 3 -20 -36 0 -44 -18 -28
-63 8 -22 19 -46 26 -54 21 -25 0 -25 -23 1 -22 23 -67 46 -91 46 -5 0 2 -13
15 -30 26 -30 26 -43 2 -102 -4 -11 -3 -18 4 -18 6 0 11 9 11 20 0 11 5 20 10
20 6 0 10 -4 10 -10 0 -5 3 -9 8 -7 19 6 14 -19 -5 -28 -14 -6 -23 -19 -23
-31 0 -36 -52 -70 -63 -41 -4 9 -6 9 -6 0 -1 -20 -21 -15 -21 5 0 14 -2 15
-10 2 -6 -10 -2 -24 16 -47 18 -24 21 -33 11 -33 -8 0 -17 7 -21 15 -3 8 -12
15 -21 15 -8 0 -15 4 -15 8 0 24 -171 92 -229 92 -47 0 -111 -42 -111 -73 0
-42 20 -49 52 -16 16 16 38 29 48 29 23 0 90 -31 90 -41 0 -4 3 -14 6 -23 5
-12 0 -16 -20 -16 -19 0 -26 -5 -26 -20 0 -15 -8 -22 -29 -26 -28 -6 -91 -57
-91 -75 0 -5 -8 -5 -17 -2 -12 5 -15 2 -10 -10 4 -12 -2 -21 -23 -32 -16 -8
-35 -15 -42 -15 -7 0 -24 -12 -37 -26 -14 -14 -41 -33 -61 -41 -32 -14 -59
-49 -60 -77 -1 -6 -15 -18 -33 -27 -132 -64 -158 -81 -146 -95 6 -8 21 -12 33
-10 11 2 15 1 8 -1 -7 -3 -10 -8 -7 -13 7 -12 -15 -70 -27 -70 -6 0 -8 -9 -5
-19 4 -18 2 -18 -32 -6 -28 9 -41 10 -52 1 -18 -14 -39 -61 -39 -88 0 -12 -12
-46 -26 -76 -35 -75 -64 -103 -64 -64 -1 16 -2 16 -14 -1 -9 -12 -16 -14 -21
-8 -3 6 -1 11 4 11 6 0 11 7 11 16 0 13 37 91 50 104 22 22 52 75 53 95 3 36
-16 35 -25 -1 -10 -39 -84 -113 -120 -121 -25 -5 -28 -10 -28 -47 0 -61 10
-88 29 -83 15 3 16 -4 13 -59 -6 -84 25 -269 52 -314 66 -111 76 -120 76 -73
0 25 1 25 28 -13 44 -60 58 -69 77 -50 24 23 34 20 50 -17 33 -73 -13 -67 539
-67 425 0 496 2 496 14 0 8 -16 45 -35 83 -19 37 -35 74 -35 81 0 6 -4 12 -10
12 -5 0 -7 6 -5 13 5 13 41 30 85 42 14 3 39 12 55 20 76 34 104 45 119 45 9
0 24 4 34 9 16 9 77 27 222 66 36 10 81 23 100 30 19 7 54 16 77 20 24 4 45
11 49 16 3 5 14 9 26 9 11 0 34 6 51 13 56 24 161 57 180 57 9 0 17 4 17 9 0
5 15 11 33 15 29 6 174 56 222 77 20 9 38 15 180 64 44 16 89 31 100 35 11 4
54 17 95 29 41 13 83 27 93 32 10 5 58 13 106 18 48 4 94 11 100 16 13 7 81
-24 81 -37 0 -5 6 -8 13 -8 6 -1 28 -14 47 -30 19 -17 38 -30 42 -30 4 0 30
-16 57 -35 26 -19 56 -35 66 -35 17 0 17 1 0 20 -15 17 -16 20 -3 20 9 0 23
-15 32 -33 9 -19 16 -25 16 -14 0 14 9 17 45 17 l45 0 2 -37 c1 -21 2 -46 1
-55 0 -10 6 -18 14 -18 7 0 13 -4 13 -10 0 -5 5 -10 10 -10 6 0 24 -10 40 -22
16 -12 32 -19 35 -16 4 3 20 -7 38 -23 17 -16 39 -29 49 -29 10 0 18 -4 18
-10 0 -17 44 -50 67 -50 16 0 22 -4 17 -12 -5 -8 0 -9 14 -6 14 4 22 2 22 -6
0 -7 8 -20 18 -28 21 -19 67 -35 58 -20 -18 29 57 17 76 -12 4 -6 8 3 8 21 0
17 -8 39 -17 49 -17 17 -17 17 3 12 14 -3 25 1 32 13 18 28 15 35 -18 49 -16
7 -30 16 -30 21 0 5 -7 9 -15 9 -9 0 -18 7 -21 15 -4 8 -14 15 -24 15 -10 0
-26 7 -34 16 -15 14 -17 14 -22 -1 -5 -13 -9 -14 -15 -4 -5 8 -3 17 4 21 8 5
7 8 -5 8 -9 0 -18 3 -20 8 -4 10 -95 52 -112 52 -8 0 -16 5 -18 11 -2 6 -17
12 -33 14 -50 4 -124 55 -80 55 8 0 15 -4 15 -9 0 -5 14 -12 31 -16 17 -4 42
-13 57 -21 15 -8 35 -14 44 -14 9 0 18 -3 20 -7 4 -10 84 -53 98 -53 5 0 29
-13 52 -30 22 -16 47 -30 54 -30 7 0 17 -6 21 -13 4 -7 21 -21 36 -31 54 -34
107 -88 137 -141 16 -28 41 -64 55 -78 18 -17 22 -26 13 -30 -10 -4 -11 -7 0
-18 16 -18 15 -29 -3 -29 -8 0 -15 -4 -15 -10 0 -5 5 -10 10 -10 14 0 12 -48
-2 -52 -15 -5 20 -55 45 -63 9 -4 17 -11 17 -16 0 -5 179 -9 450 -9 l451 0 -6
33 c-10 62 -13 106 -8 126 10 37 29 -1 36 -68 8 -91 23 -96 31 -12 4 50 2 81
-8 108 -18 49 -28 107 -27 160 0 23 -4 45 -10 49 -7 4 -6 10 1 19 7 8 9 18 6
23 -3 5 -1 23 4 40 5 18 5 34 0 37 -5 3 -6 15 -1 26 4 12 5 34 3 50 -4 24 -7
27 -18 18 -11 -9 -14 -6 -14 19 0 18 -6 32 -16 36 -13 5 -14 1 -9 -23 6 -26 4
-28 -19 -24 -17 4 -23 10 -19 21 5 11 3 13 -6 7 -8 -4 -7 2 3 17 16 25 16 25
-10 20 -15 -3 -29 1 -34 8 -5 8 -8 3 -7 -14 1 -16 7 -24 14 -22 7 3 10 -1 6
-10 -6 -17 -5 -17 -37 -4 -17 6 -27 6 -32 -1 -4 -6 -11 -6 -21 2 -25 21 -37
-11 -12 -34 11 -10 17 -22 14 -28 -10 -16 -25 -10 -25 10 0 11 -4 22 -9 25 -5
4 -5 18 1 34 12 31 3 102 -12 102 -13 0 -13 -17 0 -25 14 -9 12 -61 -3 -73 -9
-8 -19 -2 -37 26 -14 20 -29 40 -34 43 -5 4 -6 14 -3 23 5 14 3 15 -13 6 -27
-14 -32 -12 -21 9 12 22 5 32 -17 24 -11 -5 -14 -2 -9 10 3 9 3 16 -1 16 -4
-1 -14 -1 -22 0 -12 1 -12 4 2 15 15 11 16 15 3 32 -14 18 -14 18 -15 -6 -1
-14 -4 -19 -7 -12 -2 6 -11 12 -19 12 -19 0 -17 10 6 40 25 32 25 35 -6 37
-15 0 -30 7 -35 15 -5 8 -8 -9 -8 -45 1 -45 5 -57 18 -57 9 0 22 -9 29 -21 11
-18 11 -23 -5 -34 -19 -14 -33 -11 -33 9 0 6 -5 17 -12 24 -9 9 -14 7 -23 -5
-14 -19 -35 -9 -35 17 0 25 -25 36 -90 40 -19 1 -29 4 -22 7 6 2 12 10 12 16
0 7 8 17 19 24 10 6 21 20 23 31 4 15 1 18 -13 15 -11 -3 -19 -9 -19 -14 0 -5
-7 -9 -15 -9 -8 0 -15 -6 -15 -12 0 -9 -3 -8 -10 2 -8 13 -11 12 -23 -4 -10
-13 -16 -15 -21 -7 -9 14 17 41 40 41 13 0 14 3 4 15 -7 8 -16 12 -21 9 -14
-8 -10 13 5 28 8 9 10 21 5 34 -8 22 -39 41 -39 24 0 -6 8 -10 17 -10 13 0 14
-3 5 -12 -9 -9 -15 -8 -27 8 -13 16 -16 17 -26 4 -9 -13 -10 -12 -5 3 3 10 6
21 6 23 0 10 67 3 78 -8 9 -9 12 -9 12 0 0 7 7 12 15 12 8 0 15 5 15 11 0 8 5
8 15 -1 12 -10 21 -8 47 9 20 12 27 21 18 22 -8 1 -22 2 -30 3 -8 0 -18 -3
-22 -9 -10 -14 -22 1 -15 20 4 9 19 15 36 15 34 0 50 16 24 24 -10 3 7 3 37 0
44 -4 53 -3 43 7 -20 20 -17 23 44 70 32 24 70 56 85 72 16 15 28 22 28 16 0
-7 15 4 33 24 51 57 54 62 77 113 31 67 25 175 -15 257 -15 31 -28 57 -29 57
-1 0 0 -41 2 -91 3 -64 1 -94 -8 -102 -10 -9 -14 -9 -17 1 -3 6 -8 10 -12 7
-5 -2 -6 7 -3 20 5 28 -18 116 -29 109 -7 -4 -26 54 -43 129 -4 15 -11 27 -16
27 -6 0 -10 6 -10 13 0 7 -6 21 -13 31 -12 16 -17 17 -36 6 -13 -6 -35 -14
-49 -16 l-27 -5 27 19 c26 17 26 18 8 30 -11 7 -20 19 -20 27 0 18 37 38 56
31 9 -3 12 -1 9 4 -3 5 -2 17 3 27 11 19 -7 43 -32 43 -9 0 -16 7 -16 15 0 23
-15 18 -30 -10 -7 -14 -17 -25 -22 -25 -4 0 -8 -4 -8 -10 0 -10 -5 -16 -65
-85 -31 -35 -34 -37 -26 -13 20 54 50 105 83 139 77 79 98 123 56 117 -19 -2
-22 1 -20 19 5 37 -15 34 -43 -7 -15 -22 -31 -40 -35 -40 -4 0 -12 -17 -18
-38 -13 -41 -99 -188 -137 -234 -22 -26 -25 -27 -34 -11 -10 17 -10 17 -11 1
0 -16 -33 -58 -45 -58 -11 0 44 119 68 147 11 12 17 27 15 35 -5 14 -54 -33
-69 -67 -5 -11 -21 -40 -34 -64 -14 -24 -25 -50 -25 -56 0 -11 -40 -29 -47
-21 -2 2 8 20 22 40 14 20 25 41 25 47 0 5 4 17 10 27 5 9 15 28 20 42 34 81
89 137 106 108 4 -7 3 -8 -4 -4 -7 4 -12 3 -12 -2 0 -19 31 -22 37 -4 10 28
106 122 125 122 10 0 18 6 18 14 0 8 7 22 15 30 12 12 13 20 5 35 -14 27 -13
77 3 93 6 7 12 36 12 65 0 29 -6 58 -12 64 -11 11 -13 10 -13 -1 0 -7 -2 -11
-5 -8 -3 2 4 29 14 59 27 76 28 306 2 332 -6 6 -11 20 -11 30 0 16 -3 17 -15
7 -8 -7 -15 -26 -15 -42 0 -22 -4 -29 -14 -25 -10 4 -12 -1 -9 -16 4 -17 2
-19 -5 -8 -6 8 -17 11 -25 8 -10 -4 -22 4 -32 19 -12 19 -21 23 -38 18 -18 -5
-20 -4 -9 7 6 7 12 28 12 46 0 26 5 36 24 43 25 9 42 28 33 37 -3 3 -19 2 -36
-2 -24 -5 -31 -12 -31 -30 0 -18 -7 -25 -32 -30 -18 -3 -43 -11 -56 -17 -17
-9 -25 -9 -34 0 -9 9 -8 12 5 12 9 0 17 7 17 15 0 8 -9 15 -20 15 -30 0 -96
36 -105 57 -4 10 -6 73 -5 141 1 105 -1 123 -15 128 -9 4 -21 17 -26 30 -4 13
-14 24 -21 24 -9 0 -8 -3 2 -10 13 -8 13 -10 -2 -10 -24 0 -34 22 -16 34 15 9
14 12 -5 29 -19 16 -22 16 -25 4 -3 -14 -6 -14 -23 1 -10 9 -19 22 -19 29 0 7
-7 13 -15 13 -8 0 -15 7 -15 15 0 8 -4 15 -9 15 -5 0 -12 12 -16 27 -3 15 -10
30 -13 33 -11 8 -52 96 -52 111 0 8 -13 30 -29 49 -28 35 -47 76 -43 95 1 6
-24 24 -56 40 -60 30 -109 34 -128 9 -6 -8 -14 -14 -18 -14 -12 0 -6 38 9 50
8 7 15 21 15 32 0 10 5 16 10 13 6 -3 10 -1 10 4 0 6 3 10 8 9 16 -3 42 15 42
29 0 12 -8 14 -36 8 l-37 -6 34 35 c19 19 42 44 52 55 22 27 66 27 114 1 21
-11 43 -20 49 -20 17 0 47 -37 39 -49 -3 -6 -41 -11 -88 -11 l-82 0 25 -20
c14 -11 30 -18 35 -16 6 2 17 -3 26 -11 10 -8 39 -22 65 -32 47 -16 49 -18 52
-60 3 -35 10 -50 39 -77 20 -19 39 -34 43 -34 4 0 11 -12 15 -27 3 -15 11 -31
16 -34 6 -3 11 -13 13 -21 3 -26 36 -68 52 -68 10 0 14 -6 10 -15 -3 -9 3 -19
14 -25 28 -15 110 -29 110 -19 0 5 9 9 20 9 23 0 41 31 22 38 -7 2 -12 11 -12
19 0 9 6 13 15 9 35 -13 62 31 36 60 -5 5 -12 19 -16 32 -5 16 -2 22 9 22 12
0 16 8 14 28 -1 15 1 33 5 39 5 7 -1 21 -13 33 -11 11 -20 26 -20 33 0 7 -5
18 -12 25 -17 17 -36 99 -27 114 5 8 10 3 14 -15 4 -15 11 -27 15 -27 10 0 24
-49 21 -72 -3 -24 57 -103 80 -104 27 -2 28 -3 40 -70 6 -32 14 -63 19 -69 4
-5 11 -28 15 -50 4 -22 10 -44 15 -50 4 -5 10 -30 14 -55 7 -50 9 -57 31 -155
9 -38 19 -83 22 -100 3 -16 12 -39 19 -51 8 -11 11 -23 8 -26 -3 -4 4 -41 15
-85 11 -43 23 -95 26 -116 4 -28 13 -40 30 -47 43 -16 43 -120 0 -120 -9 0
-12 -6 -8 -16 3 -9 0 -20 -8 -25 -17 -10 -15 -154 2 -207 6 -19 9 -47 5 -63
-3 -19 1 -40 13 -61 11 -18 22 -58 26 -88 4 -30 12 -61 18 -68 6 -8 12 -32 13
-55 1 -23 7 -43 13 -45 6 -2 11 -14 11 -28 0 -44 43 -158 85 -224 22 -36 56
-96 75 -134 l35 -69 3 37 c3 37 -8 102 -24 140 -6 15 -4 18 9 13 11 -4 18 1
22 14 11 34 -3 84 -37 130 -17 23 -40 63 -50 87 -11 25 -33 67 -50 95 -16 27
-27 52 -24 54 10 11 82 -57 100 -94 36 -74 59 -118 73 -138 11 -16 13 -17 13
-3 0 9 -4 19 -9 22 -4 3 -11 20 -15 38 -3 17 -12 39 -20 47 -30 36 -104 169
-108 197 -3 16 -9 38 -13 49 -8 20 -8 20 13 1 33 -28 40 -10 14 35 -15 26 -18
39 -10 39 13 0 88 -63 88 -73 0 -3 16 -29 36 -58 19 -29 33 -60 31 -69 -5 -18
38 -78 49 -67 12 12 -35 137 -76 200 -22 33 -40 69 -40 78 0 9 -7 22 -15 29
-17 14 -20 40 -4 40 16 0 119 -108 119 -125 0 -8 4 -15 9 -15 5 0 11 -10 14
-22 6 -22 6 -22 -13 2 -10 14 -22 21 -26 17 -7 -7 3 -32 49 -122 6 -11 13 -33
17 -50 l7 -30 8 38 c5 26 3 47 -9 71 -18 37 -21 61 -5 33 5 -9 15 -17 21 -17
12 0 3 91 -12 118 -5 10 -11 29 -14 43 -3 14 -17 38 -31 53 -14 15 -25 30 -25
34 0 4 -14 20 -31 35 -29 26 -35 52 -7 30 7 -6 25 -13 41 -17 15 -3 27 -10 27
-15 0 -5 14 -12 30 -16 17 -4 30 -11 30 -16 0 -5 7 -9 15 -9 9 0 15 9 15 24 0
17 5 23 18 22 14 -1 17 8 18 51 0 32 -3 50 -9 46 -6 -3 -7 -1 -3 5 4 7 13 12
21 12 12 0 25 21 25 41 0 5 -9 18 -21 30 -20 20 -20 21 -2 15 14 -5 26 2 43
24 14 18 32 30 46 30 27 0 31 12 9 30 -8 7 -15 24 -15 39 0 31 -22 47 -100 76
-48 17 -55 24 -58 49 -3 27 -2 28 12 16 14 -11 24 -11 59 0 23 7 51 18 62 26
11 8 26 14 34 14 20 0 101 42 101 52 0 19 -33 19 -97 -2 -37 -12 -72 -26 -78
-31 -14 -14 -25 -11 -19 5 3 8 15 16 27 19 95 22 166 70 189 129 6 15 3 16
-24 11 -28 -5 -31 -4 -23 13 4 10 10 33 14 49 6 27 11 30 49 33 28 2 42 8 42
18 0 8 -9 14 -20 14 -14 0 -20 7 -20 23 0 29 -55 107 -76 107 -3 0 -20 12 -37
26 -17 14 -56 37 -87 51 -63 29 -115 68 -181 134 -36 36 -48 57 -54 90 -9 62
-15 79 -26 79 -5 0 -9 -7 -9 -15 0 -8 -7 -15 -15 -15 -13 0 -15 -10 -11 -52 3
-29 3 -45 0 -36 -4 14 -9 15 -24 6 -11 -7 -23 -8 -27 -4 -4 5 -2 11 5 13 25 9
11 24 -17 18 -25 -5 -30 -2 -44 27 l-17 33 0 -42 c0 -31 -4 -41 -13 -37 -16 6
-37 61 -37 97 0 46 -18 39 -26 -10 -8 -52 22 -310 38 -330 5 -7 8 -20 5 -30
-4 -14 -5 -13 -6 5 0 12 -5 22 -10 22 -18 0 -53 300 -45 385 6 61 28 141 51
185 7 14 13 42 13 62 0 42 28 75 70 84 14 3 32 8 40 11 8 3 24 7 35 8 56 8
122 29 138 43 10 9 31 15 48 14 23 -2 32 3 41 22 9 22 53 48 83 50 5 1 19 10
30 21 12 11 33 29 48 39 15 10 27 25 27 32 0 8 6 14 14 14 8 0 17 9 21 19 3
11 24 39 45 63 22 24 40 47 40 53 0 5 12 19 26 30 16 13 28 33 30 54 2 19 9
40 16 48 6 8 13 28 15 46 2 17 12 49 22 72 28 62 42 101 40 111 -2 5 0 18 4
30 4 12 1 39 -8 64 -10 28 -12 47 -5 54 6 8 3 23 -11 45 -15 25 -19 44 -14 78
5 48 -10 87 -52 131 -13 12 -23 27 -23 32 0 6 -8 10 -17 10 -18 0 -53 57 -53
84 0 8 -15 30 -32 49 -18 19 -47 51 -63 72 -27 32 -37 37 -76 38 -40 2 -45 4
-41 22 3 16 -2 21 -17 21 -12 0 -21 -4 -21 -8 0 -4 -4 -8 -10 -8 -5 0 -10 5
-10 11 0 25 -58 56 -119 64 -22 3 -44 14 -58 29 -24 29 -48 34 -116 29z m-467
-364 c0 -5 -4 -9 -10 -9 -5 0 -10 7 -10 16 0 8 5 12 10 9 6 -3 10 -10 10 -16z
m135 -379 c3 -5 1 -10 -4 -10 -6 0 -11 5 -11 10 0 6 2 10 4 10 3 0 8 -4 11
-10z m-255 -54 c0 -16 32 -46 50 -46 10 0 20 -6 23 -14 6 -14 96 -16 127 -3
44 18 105 -4 119 -45 9 -25 6 -31 -45 -77 -36 -32 -62 -47 -74 -44 -10 3 -33
-3 -51 -13 -19 -10 -53 -23 -75 -29 l-42 -11 -13 38 c-8 27 -16 35 -23 28 -5
-5 -20 -10 -31 -10 -23 0 -45 35 -45 70 0 10 -6 21 -12 23 -7 3 -1 6 14 6 14
1 33 3 40 6 9 4 18 -5 25 -22 10 -25 11 -20 12 39 1 61 -1 69 -29 96 -19 20
-25 32 -17 35 14 5 47 -14 47 -27z m840 -565 c0 -22 -15 -35 -29 -27 -13 9 -1
46 15 46 8 0 14 -9 14 -19z m-237 -77 c10 -10 -12 -44 -28 -44 -9 0 -15 10
-15 25 0 18 5 25 18 25 10 0 22 -3 25 -6z m-1388 -75 c11 -17 -1 -21 -15 -4
-8 9 -8 15 -2 15 6 0 14 -5 17 -11z m295 -19 c-19 -12 27 -36 70 -36 108 -2
161 -13 194 -41 37 -31 66 -73 66 -96 0 -12 -7 -13 -32 -7 -68 18 -78 23 -98
54 l-19 32 -115 -3 c-90 -2 -118 1 -129 12 -13 12 -18 11 -38 -9 -58 -57 -70
-76 -64 -95 7 -23 -32 -64 -52 -57 -8 3 -13 -3 -13 -15 0 -18 -4 -20 -31 -14
-23 5 -29 4 -24 -4 4 -7 -1 -23 -9 -36 -9 -14 -14 -25 -10 -25 4 0 1 -7 -6
-15 -10 -12 -9 -15 5 -15 10 0 16 -3 12 -6 -12 -12 -57 6 -57 24 0 10 -3 13
-8 7 -16 -23 -212 -8 -212 16 0 5 -6 9 -14 9 -8 0 -18 5 -21 10 -4 7 3 8 22 4
45 -11 48 -10 45 11 -2 15 8 24 38 38 52 22 58 22 30 -3 -13 -11 -18 -20 -12
-20 7 0 12 -7 12 -15 0 -8 4 -15 9 -15 5 0 14 7 21 15 7 8 20 15 30 15 10 0
23 7 30 15 7 9 29 24 49 33 45 21 171 113 171 124 0 4 6 8 13 8 7 0 41 29 77
65 43 43 66 61 71 53 5 -7 4 -15 -1 -18z m-337 -10 c-3 -11 -10 -23 -16 -27
-7 -4 -8 0 -4 11 4 10 7 22 7 27 0 5 4 9 9 9 5 0 7 -9 4 -20z m-49 -35 c5 -14
-5 -19 -31 -16 -7 1 -13 -4 -13 -11 0 -22 -39 -41 -56 -27 -21 18 -17 32 9 26
16 -5 28 1 42 18 23 28 40 31 49 10z m-274 -145 c0 -19 -5 -30 -14 -30 -20 0
-29 16 -21 40 10 32 35 25 35 -10z m837 -42 c29 -12 53 -28 53 -35 0 -17 -23
-16 -84 2 -27 8 -69 15 -93 15 -23 0 -43 4 -43 8 0 37 89 43 167 10z m-777
-27 c0 -11 -5 -23 -11 -27 -15 -9 -33 12 -26 30 9 23 37 20 37 -3z m1280 -60
c-6 -12 -15 -21 -21 -21 -10 0 -5 13 14 38 15 19 20 7 7 -17z m-940 12 c0 -17
-19 -37 -27 -29 -4 5 -2 11 5 13 6 3 10 9 6 14 -3 5 0 9 5 9 6 0 11 -3 11 -7z
m23 -79 c-6 -16 -29 -19 -38 -4 -4 6 -1 17 5 26 15 18 42 0 33 -22z m-8 -54
c4 -6 11 -8 16 -5 5 4 9 3 9 -2 0 -4 -12 -16 -28 -25 -15 -10 -35 -23 -44 -30
-26 -19 -31 -4 -11 36 17 34 45 47 58 26z m-78 -86 c-3 -3 -12 -4 -19 -1 -8 3
-5 6 6 6 11 1 17 -2 13 -5z m178 -119 c-11 -98 -25 -88 -25 17 0 87 1 91 16
70 12 -18 14 -36 9 -87z m1346 -31 c12 -14 0 -74 -15 -74 -6 0 -18 5 -26 10
-13 9 -12 12 4 25 10 8 24 16 30 19 8 3 8 7 0 13 -6 4 -14 16 -17 27 -5 11
-13 16 -23 12 -9 -4 -23 -1 -30 5 -11 9 -9 16 8 40 l22 29 19 -47 c10 -26 23
-53 28 -59z m-1258 4 c12 -10 14 -17 7 -28 -9 -13 -12 -12 -25 4 -26 34 -15
48 18 24z m611 -53 c3 -9 0 -15 -9 -15 -9 0 -12 6 -9 15 4 8 7 15 9 15 2 0 5
-7 9 -15z m734 -58 c-10 -15 -13 -30 -7 -44 5 -13 4 -25 -1 -28 -6 -4 -10 1
-10 10 0 12 -4 14 -19 5 -29 -15 -41 -12 -41 10 0 19 9 24 40 21 13 -2 13 0 1
8 -21 14 -5 41 25 41 25 0 26 -1 12 -23z m120 -19 c3 -27 4 -27 28 -11 29 19
68 6 78 -25 4 -11 16 -22 26 -25 11 -3 20 -10 20 -16 0 -17 -33 -27 -38 -12
-3 8 -16 2 -37 -19 -43 -41 -71 -38 -67 8 2 18 -2 40 -9 48 -10 12 -14 12 -26
-6 -15 -22 -38 -26 -48 -10 -12 19 6 89 23 93 33 9 47 2 50 -25z m-348 -109
c0 -6 16 -26 35 -45 19 -18 35 -40 35 -48 0 -8 7 -16 15 -20 17 -6 19 -24 6
-44 -6 -11 -16 -9 -47 8 -21 12 -44 27 -51 32 -7 5 -16 7 -21 4 -6 -3 -15 1
-22 9 -9 11 -9 18 3 30 9 8 20 15 26 15 14 0 14 27 0 32 -6 2 -17 19 -24 38
-7 19 -16 44 -21 55 -5 12 7 5 29 -18 20 -20 37 -42 37 -48z m289 -39 c18 -15
41 -62 41 -84 0 -23 -23 -56 -39 -56 -4 0 -15 6 -25 13 -16 12 -16 14 3 36 11
12 25 20 30 16 17 -10 13 7 -9 40 -16 24 -25 29 -50 27 -33 -4 -41 16 -15 38
10 9 12 17 5 30 -5 9 -6 20 -3 24 4 3 18 -13 31 -36 14 -24 28 -45 31 -48z
m-514 1 c3 -6 -4 -15 -15 -21 -17 -9 -20 -8 -20 10 0 20 24 28 35 11z m110 -1
c4 -6 1 -17 -5 -25 -9 -11 -16 -12 -30 -2 -14 8 -16 15 -8 24 13 16 34 17 43
3z m321 -12 c4 -13 12 -26 18 -30 8 -6 7 -8 -1 -8 -9 0 -13 -16 -13 -44 0 -25
-5 -48 -10 -51 -15 -9 -42 15 -36 32 3 8 -2 13 -14 13 -10 0 -28 12 -39 26
-24 31 -17 47 33 69 44 19 54 18 62 -7z m-1572 -160 c20 -29 20 -78 0 -189
-14 -77 -18 -87 -29 -72 -18 27 -28 124 -20 209 8 79 21 93 49 52z m-195 -80
l1 -63 -20 33 c-24 39 -26 62 -5 62 8 0 15 7 15 15 0 8 2 15 4 15 2 0 4 -28 5
-62z m-92 10 c-3 -8 -6 -5 -6 6 -1 11 2 17 5 13 3 -3 4 -12 1 -19z m35 -62
c-6 -10 -20 20 -21 44 0 8 6 4 13 -10 8 -14 12 -29 8 -34z m1168 -173 c0 -20
-3 -24 -11 -16 -7 7 -9 19 -6 27 10 24 17 19 17 -11z m-60 -63 c0 -5 -8 -10
-17 -10 -15 0 -16 2 -3 10 19 12 20 12 20 0z m816 -45 c18 -14 18 -14 -4 -15
-13 0 -21 4 -18 9 4 5 0 12 -6 14 -7 3 -8 6 -2 6 5 1 19 -6 30 -14z m-3486
-15 c0 -5 -4 -10 -9 -10 -6 0 -13 5 -16 10 -3 6 1 10 9 10 9 0 16 -4 16 -10z
m3443 -32 c24 -28 23 -62 -1 -49 -22 12 -47 41 -55 64 -6 15 -3 17 16 12 12
-4 30 -16 40 -27z m-2713 7 c0 -12 -40 -48 -46 -42 -4 4 1 16 11 27 17 19 35
26 35 15z m78 -141 c12 -40 3 -78 -21 -87 -18 -7 -27 20 -27 81 0 34 3 42 18
42 13 0 22 -12 30 -36z m839 -46 c-3 -8 -6 -5 -6 6 -1 11 2 17 5 13 3 -3 4
-12 1 -19z m-692 -12 c8 -13 13 -31 9 -40 -3 -9 -1 -16 5 -16 6 0 11 -10 12
-22 0 -22 1 -22 9 -3 7 17 9 17 9 3 1 -10 6 -18 12 -18 12 0 38 -29 39 -42 0
-5 -7 -8 -15 -8 -8 0 -15 7 -15 15 0 12 -8 14 -30 10 -22 -4 -37 0 -52 15 -26
24 -38 25 -38 5 0 -8 -5 -15 -11 -15 -5 0 -8 -4 -5 -9 3 -5 -1 -11 -9 -15 -8
-3 -15 -12 -15 -21 0 -8 -5 -15 -11 -15 -5 0 -8 -4 -5 -8 6 -11 -22 -124 -35
-137 -6 -5 -9 -3 -9 6 0 9 -13 41 -29 72 -16 31 -31 68 -34 84 -4 15 -4 22 -1
16 3 -7 12 -13 20 -13 8 0 14 -6 14 -14 0 -14 29 -31 31 -18 6 32 5 52 -2 52
-5 0 -9 11 -9 24 0 24 20 37 60 40 32 2 70 46 70 81 0 22 17 18 35 -9z m-238
-128 c-3 -8 -6 -5 -6 6 -1 11 2 17 5 13 3 -3 4 -12 1 -19z m-257 -99 c0 -36
-2 -39 -15 -25 -18 18 -19 32 -2 51 17 20 17 20 17 -26z m-567 -111 c8 -23
-11 -47 -33 -41 -23 6 -26 23 -8 41 16 16 35 15 41 0z m1076 -97 c-1 -14 -4
-39 -8 -56 -6 -29 -7 -28 -28 29 -26 71 -22 92 13 69 16 -10 24 -24 23 -42z
m-999 -7 c0 -31 -23 -28 -28 4 -2 15 2 22 12 22 11 0 16 -9 16 -26z m3190 11
c11 -13 10 -14 -4 -9 -9 3 -16 10 -16 15 0 13 6 11 20 -6z m-3134 -102 c-10
-10 -19 5 -10 18 6 11 8 11 12 0 2 -7 1 -15 -2 -18z m772 -25 c5 -18 7 -35 5
-38 -7 -8 -33 32 -33 52 0 30 19 20 28 -14z m-624 -81 c0 -39 -1 -77 -2 -83
-1 -6 -27 -14 -59 -17 -31 -3 -59 -10 -62 -16 -3 -5 -19 -13 -34 -16 -15 -4
-27 -12 -27 -17 0 -6 10 -8 23 -5 22 6 22 6 2 -9 -11 -8 -32 -25 -46 -39 -14
-13 -38 -27 -53 -31 -14 -3 -26 -10 -26 -15 0 -4 -18 -13 -40 -19 -22 -6 -40
-15 -40 -19 0 -5 -16 -11 -35 -13 l-36 -4 70 68 c39 37 72 68 76 68 3 0 15 10
27 22 l21 21 17 -21 c17 -20 17 -20 18 9 0 16 4 34 9 41 4 7 6 21 5 30 -2 9 6
22 17 28 12 6 21 20 21 31 0 11 5 17 10 14 16 -10 12 -20 -17 -49 -14 -14 -24
-29 -20 -32 3 -3 40 29 84 70 43 42 83 76 88 76 6 0 10 -30 9 -73z m43 51 c-3
-8 -6 -5 -6 6 -1 11 2 17 5 13 3 -3 4 -12 1 -19z m-167 -3 c0 -8 -4 -15 -10
-15 -5 0 -10 7 -10 15 0 8 5 15 10 15 6 0 10 -7 10 -15z m594 -12 c23 -25 24
-28 10 -55 -12 -23 -21 -29 -42 -26 -24 3 -27 8 -30 43 -3 29 1 43 14 52 23
16 19 17 48 -14z m223 11 c-3 -3 -12 -4 -19 -1 -8 3 -5 6 6 6 11 1 17 -2 13
-5z m2043 -54 c0 -24 -4 -30 -21 -30 -11 0 -27 6 -35 14 -12 13 -11 17 8 30
34 24 48 20 48 -14z m-2134 -6 c-6 -31 -16 -45 -16 -21 0 18 10 47 16 47 3 0
2 -12 0 -26z m113 -4 c1 -14 11 -36 20 -50 10 -14 18 -42 18 -63 1 -37 0 -38
-18 -21 -10 9 -19 23 -19 30 0 7 -11 34 -25 60 -31 59 -32 76 -2 72 15 -2 23
-11 26 -28z m421 20 c0 -5 -2 -10 -4 -10 -3 0 -8 5 -11 10 -3 6 -1 10 4 10 6
0 11 -4 11 -10z m1502 -32 c-7 -7 -12 -25 -12 -40 0 -23 -4 -28 -24 -28 -16 0
-27 7 -31 20 -3 11 -12 20 -18 20 -14 0 34 26 60 33 32 8 37 7 25 -5z m95 -24
c-3 -3 -12 -4 -19 -1 -8 3 -5 6 6 6 11 1 17 -2 13 -5z m-190 -20 c-3 -3 -12
-4 -19 -1 -8 3 -5 6 6 6 11 1 17 -2 13 -5z m-45 -13 c-7 -4 -12 -12 -11 -17 4
-24 -3 -34 -26 -34 -20 0 -25 5 -25 24 0 24 4 26 65 34 6 1 4 -2 -3 -7z
m-1818 -64 c-10 -27 -21 -20 -22 15 -1 27 1 29 14 16 8 -8 12 -22 8 -31z
m1931 33 c-3 -5 -12 -10 -19 -10 -7 0 -37 -32 -67 -71 -30 -39 -69 -85 -86
-101 -18 -17 -33 -37 -33 -45 0 -7 -2 -13 -4 -13 -2 0 -12 -3 -20 -6 -22 -8
-10 24 20 51 35 33 124 153 124 168 0 8 10 19 23 25 28 14 70 15 62 2z m80
-17 c-7 -28 -94 -138 -102 -129 -11 10 10 45 52 88 25 26 45 51 45 57 0 6 3
11 6 11 3 0 3 -12 -1 -27z m-310 7 c3 -5 1 -10 -4 -10 -6 0 -11 -7 -11 -15 0
-8 -7 -15 -15 -15 -9 0 -12 -6 -9 -15 5 -11 -1 -15 -20 -15 -14 0 -26 5 -26
10 0 6 5 10 10 10 6 0 10 4 10 10 0 5 -6 7 -14 4 -7 -3 -16 2 -19 10 -5 11 0
16 13 16 11 0 20 5 20 10 0 6 13 10 29 10 17 0 33 -4 36 -10z m85 -40 c-19
-13 -30 -13 -30 0 0 6 10 10 23 10 18 0 19 -2 7 -10z m-1662 -32 c17 -17 15
-26 -10 -39 -13 -6 -20 -8 -16 -4 4 4 0 13 -9 20 -17 13 -10 35 11 35 6 0 17
-5 24 -12z m-111 -26 c7 -5 9 -13 3 -22 -7 -11 -11 -11 -24 -1 -24 20 -6 40
21 23z m1721 -15 c-25 -24 -71 -57 -79 -57 -5 0 -9 7 -9 15 0 8 6 15 13 15 8
0 27 11 42 24 28 24 57 26 33 3z m-1644 -24 c4 -9 0 -23 -8 -32 -18 -18 -22
-15 -31 22 -6 23 -4 27 13 27 11 0 23 -8 26 -17z m-178 -25 c8 -12 -21 -38
-43 -38 -16 0 -17 22 -1 38 15 15 35 15 44 0z m150 -32 c15 -15 6 -36 -15 -36
-9 0 -22 -5 -29 -12 -9 -9 -12 -3 -12 29 0 38 2 41 23 35 12 -3 27 -10 33 -16z
m-106 -13 c0 -5 13 -22 28 -39 23 -27 29 -29 41 -17 7 8 16 12 19 9 6 -7 -53
-62 -83 -78 -16 -8 -18 -8 -8 2 10 11 9 16 -3 24 -8 6 -16 22 -17 34 -1 17 -7
22 -22 20 -26 -3 -67 20 -59 33 3 6 11 8 18 6 6 -2 20 -1 31 4 26 10 55 11 55
2z m2420 -43 c0 -11 -4 -20 -10 -20 -5 0 -10 -12 -10 -27 0 -14 -3 -24 -6 -20
-9 9 6 87 17 87 5 0 9 -9 9 -20z m-2632 -33 c23 -25 20 -37 -9 -37 -18 0 -39
27 -39 49 0 19 26 12 48 -12z m175 -32 c22 -16 19 -48 -4 -53 -17 -3 -39 35
-32 56 6 15 13 15 36 -3z m-88 -55 c0 -22 -29 -18 -33 3 -3 14 1 18 15 15 10
-2 18 -10 18 -18z m2496 -41 c-25 -41 -27 -32 -5 19 9 20 18 32 21 26 2 -7 -5
-27 -16 -45z m-2593 4 c-4 -22 -22 -20 -26 1 -2 10 3 16 13 16 10 0 15 -7 13
-17z m-249 -22 c-3 -6 -10 -7 -18 -2 -7 5 -10 14 -6 21 9 14 29 -2 24 -19z
m149 6 c2 -10 -3 -17 -12 -17 -10 0 -16 9 -16 21 0 24 23 21 28 -4z m-68 -13
c0 -8 -7 -14 -15 -14 -15 0 -21 21 -9 33 10 9 24 -2 24 -19z m-77 -71 c-7 -2
-21 -2 -30 0 -10 3 -4 5 12 5 17 0 24 -2 18 -5z m44 -9 c-3 -3 -12 -4 -19 -1
-8 3 -5 6 6 6 11 1 17 -2 13 -5z m40 -16 c-3 -8 -6 -5 -6 6 -1 11 2 17 5 13 3
-3 4 -12 1 -19z m43 13 c0 -6 -4 -13 -10 -16 -5 -3 -10 1 -10 9 0 9 5 16 10
16 6 0 10 -4 10 -9z m34 -6 c-4 -8 -8 -15 -10 -15 -2 0 -4 7 -4 15 0 8 4 15
10 15 5 0 7 -7 4 -15z m2179 -165 c9 -8 17 -21 16 -30 0 -10 -2 -11 -6 -3 -6
16 -69 47 -80 40 -4 -3 -14 1 -20 8 -30 33 49 19 90 -15z m-350 -15 c-3 -9 -8
-14 -10 -11 -3 3 -2 9 2 15 9 16 15 13 8 -4z m135 1 c-7 -8 -15 -12 -17 -11
-5 6 10 25 20 25 5 0 4 -6 -3 -14z m-48 -16 c-11 -20 -59 -59 -97 -79 -19 -10
-23 -9 -23 4 0 8 7 15 16 15 11 0 14 6 9 21 -6 19 -4 21 17 17 16 -3 35 3 54
19 35 28 38 28 24 3z m71 -56 c16 -19 10 -23 -28 -17 -30 5 -48 23 -22 23 5 0
8 4 5 9 -9 14 32 0 45 -15z m-62 -30 c1 -7 -8 -14 -18 -17 -17 -4 -18 -1 -10
27 5 17 9 33 10 36 1 8 18 -34 18 -46z m272 -7 c-10 -9 -11 -8 -5 6 3 10 9 15
12 12 3 -3 0 -11 -7 -18z m-340 -20 c-10 -9 -11 -8 -5 6 3 10 9 15 12 12 3 -3
0 -11 -7 -18z m374 3 c-3 -5 -12 -10 -18 -10 -7 0 -6 4 3 10 19 12 23 12 15 0z
m-175 -41 c0 -5 -4 -9 -10 -9 -5 0 -10 7 -10 16 0 8 5 12 10 9 6 -3 10 -10 10
-16z m-335 1 c3 -5 1 -10 -4 -10 -6 0 -11 5 -11 10 0 6 2 10 4 10 3 0 8 -4 11
-10z m130 -20 c3 -6 -1 -7 -9 -4 -18 7 -21 14 -7 14 6 0 13 -4 16 -10z m-867
-21 c8 -12 9 -18 4 -15 -5 3 -12 -4 -15 -16 -7 -24 7 -37 38 -38 20 -1 20 -1
1 -12 -15 -8 -21 -8 -24 0 -2 7 -10 12 -17 12 -8 0 -18 6 -22 14 -4 7 -15 16
-23 20 -8 3 -5 4 8 2 19 -4 22 0 22 25 0 34 10 37 28 8z m442 -7 c0 -10 -21
-32 -31 -32 -4 0 -5 9 -2 20 5 19 33 29 33 12z m760 -12 c0 -5 -6 -10 -12 -13
-14 -4 -4 -29 28 -72 13 -17 16 -18 24 -5 8 12 10 11 10 -7 0 -16 -6 -23 -20
-23 -11 0 -20 6 -20 14 0 8 -6 16 -13 19 -24 9 -47 68 -34 88 10 16 37 16 37
-1z m315 10 c3 -5 1 -10 -4 -10 -6 0 -11 5 -11 10 0 6 2 10 4 10 3 0 8 -4 11
-10z m-1295 -10 c0 -5 -7 -10 -15 -10 -8 0 -15 5 -15 10 0 6 7 10 15 10 8 0
15 -4 15 -10z m535 -10 c3 -5 1 -10 -4 -10 -6 0 -11 5 -11 10 0 6 2 10 4 10 3
0 8 -4 11 -10z m-428 -6 c-3 -3 -12 -4 -19 -1 -8 3 -5 6 6 6 11 1 17 -2 13 -5z
m-136 -34 c5 0 9 7 9 15 0 8 5 15 10 15 6 0 10 -7 10 -15 0 -8 8 -15 17 -15
13 0 9 -8 -15 -30 -49 -44 -69 -40 -68 13 1 36 3 41 14 30 7 -7 18 -13 23 -13z
m718 -11 c-11 -11 -30 -21 -42 -22 -12 0 -25 -5 -28 -10 -4 -5 -9 -4 -13 2 -4
6 -2 11 3 11 6 0 11 6 11 14 0 14 57 35 77 29 7 -3 5 -11 -8 -24z m-589 -4 c0
-9 -6 -12 -15 -9 -8 4 -15 10 -15 15 0 5 7 9 15 9 8 0 15 -7 15 -15z m108 -2
c18 -18 30 -16 35 5 3 9 4 1 3 -20 -1 -28 -4 -34 -15 -28 -8 4 -26 4 -39 -1
-29 -11 -39 -5 -23 15 9 11 8 15 -4 20 -9 3 -15 0 -15 -10 0 -8 -6 -17 -14
-20 -8 -3 -12 -12 -9 -20 3 -7 -2 -17 -11 -20 -23 -9 -20 -39 7 -52 l22 -11
-25 0 c-14 0 -45 8 -69 19 -24 11 -45 20 -48 20 -8 0 22 -27 37 -33 11 -4 9
-6 -5 -6 -12 -1 -26 -6 -33 -13 -9 -9 -12 -4 -12 24 l0 37 -46 -6 c-33 -4 -45
-2 -40 6 4 6 17 11 29 11 20 1 21 1 4 11 -10 6 -25 8 -34 5 -10 -4 -14 -2 -10
8 6 16 -36 31 -55 20 -7 -5 -8 -2 -3 6 4 7 2 16 -5 20 -9 5 -9 9 -1 14 6 4 11
2 11 -3 0 -6 7 -11 15 -11 8 0 15 -4 15 -10 0 -14 28 -12 33 3 2 6 3 4 2 -5
-2 -11 6 -19 26 -23 16 -4 29 -11 29 -16 0 -5 6 -9 13 -9 6 0 24 -6 38 -14 14
-7 38 -16 53 -20 27 -7 28 -6 24 28 -2 19 -1 33 3 31 3 -3 15 11 25 30 15 29
24 35 49 33 16 -1 36 -8 43 -15z m699 -5 c-3 -8 -6 -5 -6 6 -1 11 2 17 5 13 3
-3 4 -12 1 -19z m-4092 2 c3 -5 -3 -10 -14 -10 -12 0 -21 5 -21 10 0 6 6 10
14 10 8 0 18 -4 21 -10z m4279 -6 c3 -8 2 -12 -4 -9 -6 3 -10 10 -10 16 0 14
7 11 14 -7z m-656 -25 c-3 -8 -7 -3 -11 10 -4 17 -3 21 5 13 5 -5 8 -16 6 -23z
m748 8 c-1 -17 -6 -23 -18 -19 -10 2 -18 10 -18 17 0 8 8 16 18 18 9 3 18 5
18 6 1 0 1 -10 0 -22z m-379 7 c-3 -3 -12 -4 -19 -1 -8 3 -5 6 6 6 11 1 17 -2
13 -5z m-777 -14 c0 -5 -5 -10 -11 -10 -5 0 -7 5 -4 10 3 6 8 10 11 10 2 0 4
-4 4 -10z m280 -7 c0 -16 -16 -31 -40 -38 -23 -7 -23 -7 -7 9 9 10 17 22 17
27 0 5 7 9 15 9 8 0 15 -3 15 -7z m810 -17 c0 -13 3 -32 6 -41 4 -9 3 -15 -2
-14 -20 3 -34 -2 -34 -12 0 -6 7 -9 15 -5 11 4 15 -1 15 -19 0 -18 -5 -23 -20
-22 -15 1 -18 6 -14 20 4 13 0 20 -15 24 -11 3 -18 9 -15 14 3 5 -2 9 -10 9
-19 0 -21 14 -3 28 7 5 21 6 32 1 33 -13 38 -10 33 16 -3 14 -1 25 3 25 5 0 9
-11 9 -24z m-345 -6 c0 -8 -8 -14 -17 -14 -11 1 -14 -4 -11 -14 4 -10 2 -13
-8 -10 -8 3 -13 11 -11 17 1 6 -9 11 -23 11 -24 0 -32 10 -19 22 3 3 24 5 47
4 30 -1 42 -5 42 -16z m571 1 c13 -10 20 -21 17 -25 -11 -11 -20 -6 -37 19
-20 30 -13 32 20 6z m-1331 -1 c3 -5 1 -10 -4 -10 -6 0 -11 5 -11 10 0 6 2 10
4 10 3 0 8 -4 11 -10z m320 -9 c-3 -6 -11 -11 -16 -11 -5 0 -4 6 3 14 14 16
24 13 13 -3z m903 -9 c13 -20 13 -22 -2 -22 -9 0 -16 5 -16 11 0 5 -4 8 -8 5
-4 -2 -9 4 -9 15 -2 25 15 20 35 -9z m-356 -22 c9 0 19 -6 22 -12 3 -7 2 0 -1
16 -6 29 -6 29 32 23 47 -8 64 -22 47 -39 -10 -10 -15 -10 -22 2 -7 10 -12 11
-17 4 -13 -18 -45 -25 -59 -13 -11 9 -14 8 -14 -5 0 -9 5 -16 10 -16 6 0 10
-7 10 -15 0 -8 -5 -15 -11 -15 -10 0 -3 -40 10 -50 3 -3 6 -12 6 -20 0 -10 11
-16 33 -17 25 -1 32 3 32 17 0 16 -5 17 -28 11 -25 -8 -28 -6 -30 16 -2 20 1
22 17 14 21 -12 32 -5 24 15 -4 10 3 14 21 14 29 0 35 -16 9 -23 -10 -3 -4 -5
12 -4 25 2 30 -2 33 -23 6 -53 13 -70 29 -70 13 0 14 -3 6 -11 -16 -16 -44 -4
-50 21 -4 16 -13 19 -39 17 -23 -1 -33 -6 -29 -14 2 -7 0 -13 -5 -13 -5 0 -7
-7 -4 -15 8 -20 41 -19 53 3 9 15 10 15 11 -5 0 -13 -4 -23 -10 -23 -5 0 -11
-12 -11 -27 l-2 -28 -4 27 c-4 24 -7 26 -23 18 -20 -10 -46 10 -32 25 4 5 2 5
-5 1 -17 -9 -28 14 -12 25 12 8 11 11 -3 20 -10 5 -18 17 -18 24 0 8 -9 15
-19 15 -10 0 -21 6 -24 14 -3 7 -15 16 -27 19 -17 4 -20 2 -15 -14 7 -22 -10
-26 -19 -4 -3 9 -12 12 -23 8 -16 -6 -16 -5 -4 11 10 12 23 16 42 12 35 -7 44
15 17 44 -22 24 -22 25 10 34 19 6 22 4 22 -19 0 -24 2 -25 15 -11 14 14 14
18 -2 43 -17 28 -17 28 3 11 11 -10 28 -18 36 -18z m448 11 c0 -5 -9 -11 -20
-14 -22 -6 -28 8 -7 16 19 8 27 8 27 -2z m-1089 -34 c-16 -16 -25 -1 -10 16 8
8 16 11 18 5 2 -5 -2 -15 -8 -21z m222 26 c-7 -2 -19 -2 -25 0 -7 3 -2 5 12 5
14 0 19 -2 13 -5z m81 -14 c-8 -14 -24 -10 -24 6 0 9 6 12 15 9 8 -4 12 -10 9
-15z m849 -33 c1 -14 5 -26 9 -26 4 0 5 -6 2 -13 -3 -8 2 -20 11 -27 8 -7 15
-19 15 -27 0 -26 -28 4 -35 38 -7 30 -20 38 -29 17 -3 -7 -2 0 1 16 4 21 3 27
-6 22 -6 -4 -18 -1 -26 8 -20 20 -19 29 4 21 11 -3 22 -1 26 5 10 17 27 -3 28
-34z m-115 -5 c2 -14 0 -21 -7 -17 -5 4 -7 14 -4 22 5 13 1 15 -18 9 -18 -5
-21 -4 -9 4 21 15 34 8 38 -18z m-952 8 c7 -12 -12 -29 -34 -29 -10 0 -10 5
-2 20 12 22 25 26 36 9z m37 -11 c5 -17 -3 -48 -13 -48 -5 0 -8 14 -8 30 1 30
13 40 21 18z m58 -2 c-6 -7 -9 -20 -5 -29 3 -8 1 -18 -5 -22 -15 -9 -14 38 1
53 16 16 23 15 9 -2z m199 -52 c0 -1 -8 -2 -19 -1 -12 1 -17 7 -13 19 2 10 -1
18 -7 18 -8 0 -8 4 1 14 11 11 15 9 25 -16 7 -17 13 -32 13 -34z m385 56 c3
-5 1 -10 -4 -10 -6 0 -11 5 -11 10 0 6 2 10 4 10 3 0 8 -4 11 -10z m325 0 c0
-5 -4 -10 -10 -10 -5 0 -10 5 -10 10 0 6 5 10 10 10 6 0 10 -4 10 -10z m-680
-16 c0 -2 -7 -4 -15 -4 -8 0 -15 4 -15 10 0 5 7 7 15 4 8 -4 15 -8 15 -10z
m407 -46 c-3 -8 -6 -5 -6 6 -1 11 2 17 5 13 3 -3 4 -12 1 -19z m-571 -2 c8 -8
14 -21 13 -28 0 -10 -2 -10 -6 0 -7 17 -23 15 -23 -3 0 -8 -5 -15 -11 -15 -6
0 -8 7 -5 16 3 9 6 22 6 30 0 18 8 18 26 0z m321 -38 c-3 -8 -6 -5 -6 6 -1 11
2 17 5 13 3 -3 4 -12 1 -19z m390 -8 c-1 -3 3 -15 7 -28 13 -39 -3 -38 -19 1
-19 46 -19 62 -1 45 8 -7 14 -15 13 -18z m128 20 c3 -5 1 -10 -4 -10 -6 0 -11
5 -11 10 0 6 2 10 4 10 3 0 8 -4 11 -10z m42 4 c-3 -3 -12 -4 -19 -1 -8 3 -5
6 6 6 11 1 17 -2 13 -5z m393 2 c0 -3 -4 -8 -10 -11 -5 -3 -10 -1 -10 4 0 6 5
11 10 11 6 0 10 -2 10 -4z m-706 -21 c3 -9 0 -15 -9 -15 -8 0 -15 7 -15 15 0
8 4 15 9 15 5 0 11 -7 15 -15z m-206 -4 c11 -7 11 -9 -1 -14 -16 -6 -27 0 -27
15 0 10 11 10 28 -1z m847 -1 c3 -5 1 -10 -4 -10 -6 0 -11 5 -11 10 0 6 2 10
4 10 3 0 8 -4 11 -10z m-1102 -17 c-3 -7 -6 -13 -8 -13 -2 0 -5 6 -8 13 -3 8
1 14 8 14 7 0 11 -6 8 -14z m-373 -13 c0 -5 -8 -10 -17 -10 -15 0 -16 2 -3 10
19 12 20 12 20 0z m97 -22 c-3 -8 -6 -5 -6 6 -1 11 2 17 5 13 3 -3 4 -12 1
-19z m253 1 c0 -5 -4 -9 -10 -9 -5 0 -10 7 -10 16 0 8 5 12 10 9 6 -3 10 -10
10 -16z m80 10 c0 -4 -7 -14 -15 -23 -8 -8 -15 -20 -15 -26 0 -6 -5 -8 -10 -5
-6 4 -7 12 -3 18 4 7 6 19 5 27 -2 10 5 16 18 16 11 0 20 -3 20 -7z m-295 -9
c3 -5 1 -10 -4 -10 -6 0 -11 5 -11 10 0 6 2 10 4 10 3 0 8 -4 11 -10z m54 -29
c0 -10 -2 -11 -6 -3 -2 6 -11 12 -19 12 -8 0 -14 4 -14 9 0 5 9 7 20 4 11 -3
20 -13 19 -22z m271 15 c0 -8 3 -23 7 -33 4 -11 -2 -8 -15 9 -26 31 -27 38 -7
38 8 0 15 -6 15 -14z m330 -46 c0 -5 -4 -10 -10 -10 -5 0 -10 5 -10 10 0 6 5
10 10 10 6 0 10 -4 10 -10z m230 -16 c0 -3 -10 -4 -22 -2 -16 2 -23 -3 -26
-17 -6 -36 -12 -46 -23 -40 -8 5 -8 10 0 18 6 6 11 18 11 27 0 26 20 40 42 29
10 -5 18 -12 18 -15z m-166 -16 c-4 -6 -10 -5 -15 3 -14 22 -10 33 6 19 8 -7
12 -17 9 -22z m-4015 5 c6 -11 6 -24 0 -35 -5 -10 -13 -38 -18 -64 l-9 -45 22
20 c12 12 34 21 49 21 23 0 27 -4 27 -30 0 -33 -23 -75 -45 -84 -24 -9 -74 14
-81 37 -13 40 -4 148 14 173 20 28 28 29 41 7z m3501 -8 c0 -17 -4 -23 -15
-19 -11 5 -12 11 -4 25 13 26 19 24 19 -6z m403 1 c4 -10 1 -13 -8 -9 -8 3
-12 9 -9 14 7 12 11 11 17 -5z m-493 -6 c0 -5 -5 -10 -11 -10 -5 0 -7 5 -4 10
3 6 8 10 11 10 2 0 4 -4 4 -10z m53 -37 c-7 -2 -19 -2 -25 0 -7 3 -2 5 12 5
14 0 19 -2 13 -5z m347 -37 c0 -6 -5 -4 -10 4 -9 13 -11 13 -21 0 -9 -13 -10
-12 -5 3 3 10 6 24 6 30 0 7 7 3 15 -7 8 -11 15 -25 15 -30z m143 24 c3 -12 0
-20 -8 -20 -14 0 -27 25 -18 34 11 11 21 6 26 -14z m-523 -24 c0 -2 -7 -6 -15
-10 -8 -3 -15 -1 -15 4 0 6 7 10 15 10 8 0 15 -2 15 -4z m330 -41 c10 -12 10
-15 -3 -15 -8 0 -17 7 -21 15 -3 8 -2 15 3 15 5 0 14 -7 21 -15z m929 -52 c-1
-49 -3 -53 -8 -23 -6 33 -3 80 5 80 2 0 3 -26 3 -57z m-816 10 c6 -33 0 -44
-13 -23 -12 19 -15 14 -26 -40 -5 -24 -13 -44 -19 -43 -5 1 -16 -3 -22 -9 -19
-15 -17 23 2 48 8 10 15 25 15 32 0 20 23 39 40 34 13 -5 13 -3 1 11 -11 15
-11 17 2 17 8 0 17 -12 20 -27z m194 -115 c-3 -8 -6 -5 -6 6 -1 11 2 17 5 13
3 -3 4 -12 1 -19z"/>
<path d="M3590 4041 c0 -6 4 -13 10 -16 6 -3 7 1 4 9 -7 18 -14 21 -14 7z"/>
<path d="M5150 3356 c0 -9 5 -16 10 -16 6 0 10 4 10 9 0 6 -4 13 -10 16 -5 3
-10 -1 -10 -9z"/>
<path d="M2780 1520 c0 -5 5 -10 10 -10 6 0 10 5 10 10 0 6 -4 10 -10 10 -5 0
-10 -4 -10 -10z"/>
<path d="M4475 5610 c-6 -10 33 -70 46 -70 4 0 10 7 13 16 12 31 6 52 -16 58
-31 8 -36 8 -43 -4z"/>
<path d="M4366 5461 c-10 -11 -19 -38 -19 -61 -2 -33 -5 -40 -19 -36 -15 3
-16 1 -7 -15 5 -10 6 -19 2 -19 -4 0 2 -7 13 -15 28 -21 97 -19 117 3 21 23
21 32 1 32 -12 0 -15 6 -10 23 6 24 -32 107 -50 107 -6 0 -19 -9 -28 -19z"/>
<path d="M4541 5383 c-1 -6 -4 -20 -7 -30 -5 -17 -5 -17 6 0 6 10 9 23 6 30
-3 9 -5 9 -5 0z"/>
<path d="M4220 4889 c0 -5 9 -9 20 -9 11 0 20 -4 20 -10 0 -5 12 -10 27 -10
26 0 27 1 8 14 -25 16 -75 26 -75 15z"/>
<path d="M4111 4798 c0 -18 3 -26 6 -18 3 8 10 23 15 33 6 12 5 17 -7 17 -10
0 -15 -10 -14 -32z"/>
<path d="M4161 4797 c2 -1 13 -9 24 -17 19 -14 19 -14 6 3 -7 9 -18 17 -24 17
-6 0 -8 -1 -6 -3z"/>
<path d="M4229 4750 c13 -11 30 -20 39 -20 8 0 24 -8 35 -17 18 -17 19 -17 16
1 -5 24 -55 54 -89 55 l-25 0 24 -19z"/>
<path d="M3317 4723 c-3 -5 -4 -20 -2 -36 2 -15 -5 -44 -15 -64 -10 -20 -15
-43 -13 -51 6 -14 21 11 42 71 6 15 15 27 21 27 12 0 13 -20 1 -39 -14 -22 -2
-38 25 -33 15 3 24 0 24 -8 0 -9 10 -10 35 -6 26 5 37 3 41 -7 3 -8 18 -17 35
-21 16 -3 29 -10 29 -15 0 -5 -22 -28 -50 -51 -70 -59 -87 -86 -109 -179 -14
-63 -16 -81 -5 -81 7 0 19 7 28 15 8 8 18 15 23 15 4 0 20 11 35 24 14 14 28
22 31 19 9 -8 37 23 37 41 0 14 22 21 51 18 4 -1 6 6 5 15 0 9 5 18 13 21 8 3
11 0 7 -6 -12 -19 44 3 161 63 76 39 117 55 130 51 17 -7 17 -8 -1 -21 -10 -8
-16 -19 -14 -26 3 -8 11 -5 25 10 12 13 19 30 16 37 -8 20 17 46 39 41 13 -4
18 0 18 14 0 23 -13 24 -48 4 -35 -18 -119 -55 -128 -55 -12 0 -99 45 -102 53
-6 12 -30 8 -35 -5 -4 -9 -6 -8 -6 2 -1 15 -62 60 -81 60 -5 0 -39 18 -74 39
-88 54 -177 84 -189 64z m301 -277 c-7 -8 -15 -12 -17 -11 -5 6 10 25 20 25 5
0 4 -6 -3 -14z"/>
<path d="M3715 4650 c-4 -6 11 -10 37 -10 31 0 39 3 28 10 -20 13 -57 13 -65
0z"/>
<path d="M3888 4583 c7 -3 16 -2 19 1 4 3 -2 6 -13 5 -11 0 -14 -3 -6 -6z"/>
<path d="M3945 4510 c4 -6 11 -8 16 -5 14 9 11 15 -7 15 -8 0 -12 -5 -9 -10z"/>
<path d="M3286 4290 c-14 -28 -26 -68 -26 -88 l0 -37 14 30 c23 52 49 136 43
141 -3 3 -17 -18 -31 -46z"/>
<path d="M5060 4091 c-14 -28 -13 -32 15 -65 14 -16 25 -35 25 -43 0 -24 28
-14 33 13 5 28 -15 54 -42 54 -14 0 -17 6 -13 30 5 34 -3 39 -18 11z"/>
<path d="M3277 3990 c-9 -22 -17 -46 -17 -54 0 -7 -8 -24 -17 -37 -35 -47 -43
-69 -43 -114 0 -33 4 -45 15 -45 9 0 12 6 8 17 -5 12 -3 14 7 8 10 -6 12 -3 8
13 -4 14 -2 22 7 22 13 0 30 74 20 90 -3 6 2 7 11 3 14 -5 16 -2 10 21 -5 20
-3 26 5 21 8 -5 9 1 4 24 -6 27 -4 30 12 24 15 -5 16 -4 7 8 -6 8 -13 20 -15
27 -2 7 -12 -6 -22 -28z"/>
<path d="M3141 3944 c0 -11 3 -14 6 -6 3 7 2 16 -1 19 -3 4 -6 -2 -5 -13z"/>
<path d="M3131 3904 c0 -11 3 -14 6 -6 3 7 2 16 -1 19 -3 4 -6 -2 -5 -13z"/>
<path d="M3952 3909 c2 -6 8 -10 13 -10 5 0 11 4 13 10 2 6 -4 11 -13 11 -9 0
-15 -5 -13 -11z"/>
<path d="M3105 3848 c-4 -18 -11 -35 -14 -38 -9 -6 -41 -114 -46 -150 -5 -41
-17 -70 -29 -70 -6 0 -3 -5 6 -10 18 -11 17 -15 -33 -113 -10 -22 -16 -43 -13
-48 10 -17 33 18 40 60 4 23 10 41 15 41 4 0 11 15 14 33 11 57 12 62 18 77 3
8 11 38 16 65 16 82 36 153 44 161 10 10 9 24 -2 24 -5 0 -13 -15 -16 -32z"/>
<path d="M3124 3813 c-7 -15 -15 -48 -18 -73 -4 -25 -9 -54 -11 -65 -2 -11 -9
-47 -16 -80 -6 -33 -18 -76 -26 -95 -9 -19 -17 -41 -18 -50 -1 -8 -7 -28 -13
-43 -16 -37 -15 -42 3 -24 7 8 17 28 21 43 4 16 10 34 15 39 4 6 11 31 15 55
4 25 11 50 16 57 5 6 13 42 18 80 4 37 13 88 20 112 13 54 9 82 -6 44z"/>
<path d="M3670 3685 c0 -14 5 -25 10 -25 6 0 10 11 10 25 0 14 -4 25 -10 25
-5 0 -10 -11 -10 -25z"/>
<path d="M4661 3694 c0 -11 3 -14 6 -6 3 7 2 16 -1 19 -3 4 -6 -2 -5 -13z"/>
<path d="M3730 3690 c0 -5 5 -10 10 -10 6 0 10 5 10 10 0 6 -4 10 -10 10 -5 0
-10 -4 -10 -10z"/>
<path d="M3589 3644 c-16 -19 -20 -28 -11 -31 6 -3 10 -9 6 -14 -3 -5 -2 -9 1
-9 8 0 38 71 32 76 -2 2 -14 -8 -28 -22z"/>
<path d="M3161 3630 c0 -8 4 -24 9 -35 5 -13 9 -14 9 -5 0 8 -4 24 -9 35 -5
13 -9 14 -9 5z"/>
<path d="M3348 3603 c-2 -32 6 -82 28 -154 10 -32 21 -59 26 -59 14 0 19 45 9
73 -10 27 -10 27 29 27 30 0 38 3 34 14 -3 8 -18 19 -34 25 -26 8 -29 7 -33
-12 -3 -20 -4 -20 -15 6 -7 16 -12 44 -12 63 0 24 -5 34 -15 34 -8 0 -16 -8
-17 -17z"/>
<path d="M3636 3595 c-3 -9 0 -15 9 -15 16 0 20 16 6 24 -5 3 -11 -1 -15 -9z"/>
<path d="M3305 3540 c3 -5 8 -10 11 -10 2 0 4 5 4 10 0 6 -5 10 -11 10 -5 0
-7 -4 -4 -10z"/>
<path d="M3287 3330 c-15 -15 -27 -34 -27 -40 0 -10 -3 -10 -15 0 -22 19 -54
-7 -109 -87 -25 -37 -54 -79 -63 -93 l-17 -25 24 20 c35 28 124 116 141 140
16 23 70 55 93 55 10 0 16 9 16 24 0 37 -13 38 -43 6z"/>
<path d="M3420 3252 c0 -5 7 -13 16 -16 10 -4 14 -1 12 6 -5 15 -28 23 -28 10z"/>
<path d="M4678 3239 c-10 -5 -18 -6 -18 -2 -1 4 -7 -5 -14 -22 -7 -16 -14 -61
-15 -99 -1 -38 -8 -84 -16 -103 -13 -31 -13 -33 5 -33 10 0 31 11 46 25 15 14
33 25 40 25 8 0 14 4 14 9 0 5 9 13 20 16 11 3 20 10 20 16 0 9 11 23 63 84
34 40 34 55 2 55 -14 0 -25 4 -25 9 0 4 -17 11 -37 14 -21 3 -45 8 -53 11 -8
3 -23 1 -32 -5z"/>
<path d="M2941 3224 c0 -11 3 -14 6 -6 3 7 2 16 -1 19 -3 4 -6 -2 -5 -13z"/>
<path d="M3450 3210 c0 -5 5 -10 11 -10 5 0 7 5 4 10 -3 6 -8 10 -11 10 -2 0
-4 -4 -4 -10z"/>
<path d="M3448 3084 c-47 -76 -84 -174 -94 -247 -5 -32 -2 -46 10 -56 20 -17
21 -31 1 -31 -37 0 -46 -75 -15 -132 15 -28 18 -46 12 -78 -6 -37 -11 -43 -45
-55 -47 -16 -67 -33 -67 -56 0 -10 -4 -20 -9 -24 -13 -7 -9 -148 4 -157 15
-12 37 -9 30 3 -7 11 2 41 39 122 17 39 30 52 64 68 44 21 43 19 94 139 6 14
14 32 19 40 5 8 12 22 15 30 3 8 11 24 17 35 15 27 20 172 6 181 -13 8 -49
-24 -49 -45 0 -23 -28 -61 -46 -61 -22 0 -18 76 7 127 22 45 46 55 69 28 12
-14 40 -21 40 -9 0 3 -9 22 -20 42 -10 20 -22 48 -24 62 -7 31 -51 87 -58 74z"/>
<path d="M4780 3010 c0 -19 3 -21 12 -12 9 9 9 15 0 24 -9 9 -12 7 -12 -12z"/>
<path d="M4362 2890 c-6 -11 -12 -43 -11 -72 l1 -53 14 65 c16 72 15 90 -4 60z"/>
<path d="M4399 2823 c4 -43 5 -45 11 -18 6 32 2 65 -9 65 -3 0 -4 -21 -2 -47z"/>
<path d="M4440 2800 c19 -13 30 -13 30 0 0 6 -10 10 -22 10 -19 0 -20 -2 -8
-10z"/>
<path d="M3571 2715 c0 -46 2 -56 10 -42 7 11 7 32 1 60 l-10 42 -1 -60z"/>
<path d="M4379 2660 c-2 -19 -2 -48 2 -65 l6 -30 7 25 c4 14 3 43 -2 65 l-9
40 -4 -35z"/>
<path d="M3245 2590 c19 -8 73 -14 64 -6 -2 2 -22 6 -44 9 -28 5 -34 4 -20 -3z"/>
<path d="M4380 2515 c0 -25 -4 -45 -10 -45 -5 0 -10 -4 -10 -10 0 -5 6 -10 13
-10 9 0 14 17 16 55 1 30 0 55 -3 55 -4 0 -6 -20 -6 -45z"/>
<path d="M5375 2523 c43 -122 75 -152 61 -58 -7 46 -38 95 -61 95 -10 0 -10
-7 0 -37z"/>
<path d="M4660 2442 c0 -7 -5 -12 -11 -12 -5 0 -22 -13 -37 -28 -15 -16 -43
-38 -62 -50 -45 -26 -86 -71 -93 -99 -9 -40 17 -25 74 40 30 35 71 77 91 93
37 29 53 52 43 62 -3 3 -5 0 -5 -6z"/>
<path d="M4397 2393 c-10 -9 -9 -23 1 -23 5 0 9 7 9 15 0 17 -1 18 -10 8z"/>
<path d="M1748 2363 c7 -3 16 -2 19 1 4 3 -2 6 -13 5 -11 0 -14 -3 -6 -6z"/>
<path d="M4392 2313 c-5 -16 -14 -37 -18 -48 -7 -19 -7 -19 9 -3 16 16 35 78
24 78 -3 0 -10 -12 -15 -27z"/>
<path d="M4630 2320 c-7 -14 -7 -20 0 -20 5 0 10 6 10 14 0 8 6 17 13 19 9 4
9 6 0 6 -7 1 -17 -8 -23 -19z"/>
<path d="M4287 2290 c3 -11 7 -20 9 -20 2 0 4 9 4 20 0 11 -4 20 -9 20 -5 0
-7 -9 -4 -20z"/>
<path d="M5220 2275 c0 -8 13 -33 29 -57 15 -24 33 -56 40 -73 l11 -30 -6 35
c-9 50 -43 128 -60 134 -8 3 -14 -1 -14 -9z"/>
<path d="M4590 2269 c0 -5 5 -7 10 -4 6 3 10 8 10 11 0 2 -4 4 -10 4 -5 0 -10
-5 -10 -11z"/>
<path d="M4193 2235 c0 -22 2 -30 4 -17 2 12 2 30 0 40 -3 9 -5 -1 -4 -23z"/>
<path d="M4567 2253 c-4 -3 -7 -11 -7 -17 0 -6 5 -5 12 2 6 6 9 14 7 17 -3 3
-9 2 -12 -2z"/>
<path d="M3305 2241 c-10 -17 12 -21 25 -6 10 12 10 15 -3 15 -9 0 -18 -4 -22
-9z"/>
<path d="M4507 2196 c-21 -19 -37 -40 -37 -47 0 -7 19 7 41 30 50 51 47 65 -4
17z"/>
<path d="M4261 2164 c0 -11 3 -14 6 -6 3 7 2 16 -1 19 -3 4 -6 -2 -5 -13z"/>
<path d="M3101 2124 c0 -11 3 -14 6 -6 3 7 2 16 -1 19 -3 4 -6 -2 -5 -13z"/>
<path d="M3140 2123 c0 -13 5 -23 10 -23 13 0 13 11 0 30 -8 12 -10 11 -10 -7z"/>
<path d="M4390 2096 c0 -14 5 -28 10 -31 6 -4 10 7 10 24 0 17 -4 31 -10 31
-5 0 -10 -11 -10 -24z"/>
<path d="M4388 1993 c-4 -62 -1 -83 13 -83 5 0 9 32 9 70 0 84 -17 94 -22 13z"/>
<path d="M3125 2024 c-17 -13 -18 -16 -5 -24 10 -6 16 -5 19 3 2 7 8 18 14 25
13 17 -4 15 -28 -4z"/>
<path d="M3055 1940 c-3 -5 -1 -10 4 -10 6 0 11 5 11 10 0 6 -2 10 -4 10 -3 0
-8 -4 -11 -10z"/>
<path d="M4350 1900 c0 -16 4 -30 10 -30 5 0 8 13 7 30 -3 39 -17 39 -17 0z"/>
<path d="M3012 1880 c-12 -19 -11 -20 8 -8 11 7 20 16 20 20 0 15 -15 8 -28
-12z"/>
<path d="M4390 1890 c0 -5 5 -10 10 -10 6 0 10 5 10 10 0 6 -4 10 -10 10 -5 0
-10 -4 -10 -10z"/>
<path d="M4342 1785 c-11 -13 -9 -15 8 -15 11 0 20 7 20 15 0 19 -11 19 -28 0z"/>
<path d="M1220 1600 c6 -11 13 -20 15 -20 3 0 5 9 5 20 0 11 -7 20 -15 20 -13
0 -14 -4 -5 -20z"/>
<path d="M1180 1540 c0 -5 5 -10 11 -10 5 0 7 5 4 10 -3 6 -8 10 -11 10 -2 0
-4 -4 -4 -10z"/>
<path d="M4845 1080 c4 -6 11 -8 16 -5 14 9 11 15 -7 15 -8 0 -12 -5 -9 -10z"/>
<path d="M4813 1045 c-3 -9 -3 -18 -1 -21 3 -3 8 4 11 16 6 23 -1 27 -10 5z"/>
<path d="M4850 1045 c0 -8 -5 -15 -12 -15 -6 0 -8 -3 -5 -7 4 -3 16 3 27 15
17 18 18 22 5 22 -8 0 -15 -7 -15 -15z"/>
<path d="M4882 998 c5 -15 28 -23 28 -10 0 5 -7 13 -16 16 -10 4 -14 1 -12 -6z"/>
<path d="M4820 895 c0 -8 4 -15 9 -15 5 0 18 -3 28 -7 13 -4 12 -1 -6 15 -29
26 -31 27 -31 7z"/>
<path d="M4880 892 c0 -4 10 -16 22 -26 19 -16 20 -17 15 -1 -4 9 -7 21 -7 26
0 5 -7 9 -15 9 -8 0 -15 -3 -15 -8z"/>
<path d="M5137 773 c-12 -11 -8 -23 8 -23 8 0 15 7 15 15 0 16 -12 20 -23 8z"/>
<path d="M5238 722 c-20 -4 -26 -62 -7 -62 6 0 8 8 4 18 -4 15 2 21 27 29 27
7 29 10 13 14 -11 3 -28 3 -37 1z"/>
<path d="M3697 613 c3 -7 12 -13 20 -13 8 0 12 -4 9 -8 -6 -10 11 -38 19 -31
3 4 1 18 -4 32 -7 18 -7 27 2 30 7 3 -2 4 -19 4 -21 -1 -30 -6 -27 -14z"/>
<path d="M4290 386 c0 -28 25 -61 43 -58 18 4 18 5 1 23 -9 10 -14 19 -9 19 4
0 2 7 -5 15 -16 19 -30 19 -30 1z"/>
<path d="M4306 282 c6 -4 14 -14 17 -22 4 -10 6 -8 6 8 1 15 -5 22 -16 22 -11
0 -14 -3 -7 -8z"/>
<path d="M1656 258 c-10 -38 -7 -246 4 -253 6 -4 10 43 10 134 0 78 -2 141 -4
141 -2 0 -6 -10 -10 -22z"/>
</g>
</svg>
