<?xml version="1.0" standalone="no"?>
<!DOCTYPE svg PUBLIC "-//W3C//DTD SVG 20010904//EN"
 "http://www.w3.org/TR/2001/REC-SVG-20010904/DTD/svg10.dtd">
<svg version="1.0" xmlns="http://www.w3.org/2000/svg"
 width="84.000000pt" height="56.000000pt" viewBox="0 0 84.000000 56.000000"
 preserveAspectRatio="xMidYMid meet">

<g transform="translate(0.000000,56.000000) scale(0.100000,-0.100000)"
fill="#000000" stroke="none">
<path d="M201 524 c-71 -36 -111 -91 -111 -154 0 -40 6 -53 46 -100 25 -30 43
-59 40 -67 -4 -9 -1 -11 5 -7 16 9 29 -15 29 -54 0 -57 -80 -112 -164 -112
-54 0 -15 71 74 133 25 17 25 17 -6 3 -49 -23 -106 -92 -102 -124 3 -23 8 -27
42 -30 51 -4 135 37 160 78 17 30 18 59 1 101 -5 13 4 20 41 33 26 9 48 15 50
13 1 -1 -4 -29 -11 -62 -8 -41 -9 -66 -2 -80 10 -19 10 -19 24 0 8 11 26 38
39 60 14 22 22 30 19 19 -4 -14 0 -24 9 -27 14 -6 24 2 41 33 7 13 6 13 -7 2
-13 -10 -15 -9 -10 13 2 14 8 22 13 19 5 -3 9 3 9 14 0 10 3 22 7 26 13 12 13
46 0 46 -14 0 -61 -69 -101 -147 -14 -29 -29 -53 -32 -53 -18 0 49 204 107
327 49 104 62 145 33 108 -21 -26 -101 -196 -115 -244 -10 -33 -17 -39 -70
-57 l-59 -21 -39 42 c-77 83 -72 166 13 224 72 50 176 73 176 39 0 -5 5 -6 10
-3 8 5 7 11 -1 21 -19 23 -98 17 -158 -12z"/>
<path d="M465 285 c-20 -16 -20 -16 2 -6 33 16 43 13 43 -11 0 -28 -16 -55
-26 -45 -4 3 -1 13 6 22 10 12 10 15 -2 15 -8 0 -24 -13 -36 -30 -18 -24 -20
-34 -12 -55 13 -35 38 -29 67 14 28 42 29 31 3 -45 -28 -80 -39 -133 -30 -139
4 -3 11 12 15 33 3 20 15 56 25 79 17 39 21 42 48 37 30 -6 62 15 62 41 0 8 5
17 12 21 8 5 9 0 5 -15 -6 -25 0 -51 13 -51 5 0 21 24 38 53 16 28 40 61 52
72 l23 20 -6 -25 c-4 -14 -7 -33 -7 -42 0 -9 -19 -38 -42 -65 -44 -51 -83
-127 -73 -143 20 -33 78 34 117 135 13 36 31 62 47 71 23 13 23 15 4 11 -18
-4 -22 0 -25 26 -5 53 -31 45 -77 -24 -43 -65 -51 -65 -25 0 21 53 12 76 -12
34 -24 -42 -32 -42 -27 0 l4 32 -45 -47 c-48 -49 -55 -51 -31 -8 29 50 10 57
-19 7 l-20 -32 -5 35 c-7 40 -34 51 -66 25z m155 -40 c0 -8 -9 -19 -21 -25
-20 -11 -20 -11 -4 14 20 30 25 32 25 11z m-141 -67 c-8 -14 -14 -18 -17 -10
-4 13 17 46 25 38 3 -2 -1 -15 -8 -28z m127 16 c-3 -9 -6 -18 -6 -20 0 -2 -9
-4 -20 -4 -25 0 -26 16 -2 29 25 15 35 13 28 -5z m110 -81 c-13 -26 -31 -57
-40 -68 -15 -19 -15 -19 -16 -1 0 28 66 133 77 122 3 -2 -7 -26 -21 -53z"/>
</g>
</svg>
